<?xml version="1.0" standalone="no"?>
<!DOCTYPE svg PUBLIC "-//W3C//DTD SVG 1.1//EN" "http://www.w3.org/Graphics/SVG/1.1/DTD/svg11.dtd">
<svg xmlns="http://www.w3.org/2000/svg">
<defs >
<font id="Inconsolata" horiz-adv-x="1024" ><font-face
    font-family="Inconsolata"
    units-per-em="2048"
    panose-1="0 0 8 9 0 0 0 0 0 0"
    ascent="1759"
    descent="-389"
    alphabetic="0" />
<glyph unicode=" " glyph-name="space" />
<glyph unicode="!" glyph-name="exclam" d="M350 1178L349 1202Q349 1291 387 1332T494 1374Q560 1374 599 1334T638 1206Q638 1188 637 1178L584 406H399L350 1178ZM447 -20T411 -1T353 53T332 127Q332 166 353 200T411 255T489 276Q534 276 571 255T629 199T651
127Q651 88 629 54T569 0T489 -20Q447 -20 411 -1Z" />
<glyph unicode="&quot;" glyph-name="quotedbl" d="M460 1362Q460 1191 455 1111T439 933L428 834H288L277 933Q266 1030 261 1110T256 1362H460ZM768 1362Q768 1191 763 1111T747 933L736 834H596L585 933Q574 1030 569 1110T564 1362H768Z" />
<glyph unicode="#" glyph-name="numbersign" d="M498 14L541 360H426L385 25L180 23L217 358H39L51 518H240L270 797H68L78 958H289L326 1282L537 1284L498 963H608L645 1278L856 1280L819 967H991L971 803H799L768 526H950L938 367H750L709 27L498 14ZM444 522H557L590
799H475L444 522Z" />
<glyph unicode="$" glyph-name="dollar" d="M436 14Q341 30 254 77T100 199L225 375Q245 369 255 356T273 323Q278 308 283 303Q320 263 358 238T446 203V569Q294 625 216 705T137 901Q137 976 174 1040T278 1150T436 1214V1333H641Q653 1328 653 1313Q653 1307
648 1290Q641 1255 641 1249V1217Q724 1200 797 1153T930 1032L809 879Q791 879 783 889T767 920Q761 938 756 946Q734 971 701 992T631 1022V721Q799 668 880 587T961 375Q961 291 922 218T811 92T641 20V-90H436V14ZM446 1024Q403 1013 378 984T352 913Q352 877
375 845T446 795V1024ZM752 258T752 362Q752 461 631 504V215Q752 258 752 362Z" />
<glyph unicode="%" glyph-name="percent" d="M213 739T155 775T62 876T27 1020Q27 1096 61 1160T154 1261T281 1298Q350 1298 408 1261T500 1159T535 1018Q535 937 502 874T411 775T281 739Q213 739 155 775ZM86 0L811 1276H958L227 0H86ZM326 868T351 909T377
1018Q377 1084 352 1126T276 1169Q227 1169 202 1127T176 1018Q176 951 201 910T276 868Q326 868 351 909ZM679 -20T621 16T529 117T494 260Q494 336 528 400T621 502T748 539Q816 539 874 502T967 400T1001 258Q1001 177 968 114T878 16T748 -20Q679 -20 621 16ZM793
109T818 150T844 258Q844 324 819 367T743 410Q694 410 669 367T643 258Q643 191 668 150T743 109Q793 109 818 150Z" />
<glyph unicode="&amp;" glyph-name="ampersand" d="M725 115Q660 50 575 9T406 -33Q296 -33 218 10T101 131T61 305Q61 382 94 459T185 601T315 707Q245 784 209 863T172 1010Q172 1089 213 1154T323 1258T475 1296Q561 1296 629 1256T734 1149T772 1010Q772 947
747 881T675 760T569 672L743 422Q777 467 797 532Q798 541 798 558Q799 584 802 599T821 625L1006 496Q920 351 860 264L997 84L825 -43L725 115ZM519 838T544 890T569 999Q569 1053 544 1089T477 1126Q431 1126 406 1093T381 1008Q381 926 471 809Q519 838 544
890ZM488 147T533 179T614 264L406 563Q344 525 315 461T285 328Q285 283 304 241T358 173T434 147Q488 147 533 179Z" />
<glyph unicode="&apos;" glyph-name="quotesingle" d="M614 1362Q614 1191 609 1111T593 933L582 834H442L431 933Q420 1030 415 1110T410 1362H614Z" />
<glyph unicode="(" glyph-name="parenleft" d="M633 -298T498 -161T289 150T215 510Q215 693 286 862T489 1165T801 1374L854 1196Q649 1091 539 912T428 504Q428 355 480 218T631 -27T866 -199L813 -373Q633 -298 498 -161Z" />
<glyph unicode=")" glyph-name="parenright" d="M215 -199Q351 -135 450 -27T601 218T653 504Q653 733 543 912T227 1196L280 1374Q459 1299 591 1166T795 863T866 510Q866 325 793 151T584 -161T268 -373L215 -199Z" />
<glyph unicode="*" glyph-name="asterisk" d="M307 240L145 369L385 647L66 746L137 932L430 795L401 1110H643L600 795L885 924L961 748L641 649L874 369L711 242L512 543L307 240Z" />
<glyph unicode="+" glyph-name="plus" d="M424 221V580H84V754H424V1083H623V754H950V580H623V221H424Z" />
<glyph unicode="," glyph-name="comma" d="M305 -242Q362 -188 400 -131T438 -41Q438 -32 430 -22T403 5Q374 32 357 55T340 106Q340 146 359 179T413 231T494 250Q537 250 576 226T638 158T662 61Q662 -20 602 -120T420 -346L305 -242Z" />
<glyph unicode="-" glyph-name="hyphen" d="M131 563V750H899V563H131Z" />
<glyph unicode="." glyph-name="period" d="M454 -27T422 -9T371 42T352 113Q352 150 370 181T421 231T492 250Q529 250 560 232T610 182T629 113Q629 75 611 43T561 -8T492 -27Q454 -27 422 -9Z" />
<glyph unicode="/" glyph-name="slash" d="M287 -96L106 -10L741 1366L920 1274L287 -96Z" />
<glyph unicode="0" glyph-name="zero" d="M651 1300T750 1221T901 992T954 631Q954 421 902 271T750 41T512 -39Q373 -39 274 40T123 270T70 631Q70 841 122 991T274 1221T512 1300Q651 1300 750 1221ZM442 1116T392 1059T316 892T289 631Q289 553 297 478L692
947Q664 1029 618 1072T512 1116Q442 1116 392 1059ZM582 145T632 203T708 370T735 631Q735 721 726 794L329 322Q357 236 403 191T512 145Q582 145 632 203Z" />
<glyph unicode="1" glyph-name="one" d="M428 0V1016L209 950L154 1090L500 1276H653V0H428Z" />
<glyph unicode="2" glyph-name="two" d="M117 168Q364 405 471 518T635 728T692 928Q692 1009 641 1056T504 1104Q452 1104 405 1092T326 1063T286 1031Q246 959 246 952Q246 951 247 951Q249 952 253 955T260 959T265 955L254 935L238 944L86 1059Q160 1178 267
1241T508 1305Q622 1305 713 1258T855 1125T907 930Q907 821 856 721T721 527T475 271L393 190H810Q843 190 858 193T886 208H909V0H117V168Z" />
<glyph unicode="3" glyph-name="three" d="M783 649T844 568T905 358Q905 247 854 157T705 14T475 -39Q213 -39 76 133L171 324L172 325L173 323Q218 236 290 198T477 160Q571 160 623 216T676 367Q676 470 619 520T424 571Q376 571 317 565V750Q332 749 360 749Q518
749 579 800T641 942Q641 1016 598 1062T475 1108Q406 1108 348 1084T225 1001L96 1133Q169 1220 266 1262T473 1305Q590 1305 680 1261T821 1139T872 965Q872 862 820 788T694 680Q783 649 844 568ZM168 333T168 338Q168 340 170 340Q172 340 178 337L172 325Q168
333 168 338ZM201 327Q201 326 200 326Q197 326 190 330T178 337L179 340L200 330L201 327Z" />
<glyph unicode="4" glyph-name="four" d="M557 0V315H70V459L623 1276H788V506H958V313H788V0H557ZM307 500H565V881L307 500Z" />
<glyph unicode="5" glyph-name="five" d="M666 856T756 803T895 650T944 412Q944 279 892 177T744 18T520 -39Q238 -39 109 203L279 333L281 334L282 332Q309 280 337 245T408 187T512 164Q571 164 617 192T690 277T717 414Q717 533 663 599T520 666Q459 666 412
637T319 543L172 606L219 1276H905V1081H420L403 834Q478 856 545 856Q666 856 756 803ZM276 343T276 346Q276 349 285 338L281 334Q276 343 276 346ZM308 321T305 321Q302 321 295 328T285 338L294 344L308 325Q308 321 305 321Z" />
<glyph unicode="6" glyph-name="six" d="M651 850T739 794T878 639T930 414Q930 288 877 185T732 21T530 -39Q399 -39 303 41T155 263T104 588Q104 807 163 968T331 1216T580 1303Q666 1303 748 1265T901 1153L757 1000L756 999L743 1016Q716 1049 698 1066T651
1095T580 1106Q526 1106 475 1071T386 958T334 754Q375 795 433 822T545 850Q651 850 739 794ZM728 1004Q728 1007 731 1007Q736 1007 752 995L745 987L728 1003V1004ZM765 989T765 986Q765 986 752 995L756 999Q765 989 765 986ZM582 172T620 200T680 283T702
414Q702 490 677 543T613 621T532 647Q477 647 425 614T338 524Q338 416 363 337T433 215T535 172Q582 172 620 200Z" />
<glyph unicode="7" glyph-name="seven" d="M339 315T433 576T627 1075H135V1276H903V1159Q682 656 481 0H233Q339 315 433 576Z" />
<glyph unicode="8" glyph-name="eight" d="M393 -39T296 10T142 145T86 332Q86 432 150 525T322 678Q243 730 194 807T145 965Q145 1058 196 1137T334 1262T524 1309Q628 1309 713 1264T848 1143T897 977Q897 896 845 817T711 684Q813 627 876 534T940 338Q940
233 883 147T728 11T512 -39Q393 -39 296 10ZM599 815T632 866T666 971Q666 1007 646 1038T592 1089T518 1108Q478 1108 446 1090T395 1042T377 975Q377 866 545 778Q599 815 632 866ZM568 168T609 191T674 253T698 340Q698 413 641 477T489 575Q418 538 373 477T328
346Q328 299 353 258T422 193T516 168Q568 168 609 191Z" />
<glyph unicode="9" glyph-name="nine" d="M710 1303T810 1148T911 676Q911 -39 473 -39Q372 -39 273 -1T94 113L232 267L233 268L235 266Q288 213 342 190T461 166Q541 166 587 200T655 309T685 512Q594 414 469 414Q373 414 285 471T141 629T86 856Q86 980 141
1082T294 1244T516 1303Q710 1303 810 1148ZM573 616T614 652T690 762Q687 896 668 969T613 1070T520 1098Q423 1098 368 1031T313 842Q313 729 361 673T500 616Q573 616 614 652ZM261 264Q261 260 257 260Q253 260 235 271L244 280L261 265V264ZM229 272T227 274T224
278Q224 278 235 271L233 268Q229 272 227 274Z" />
<glyph unicode=":" glyph-name="colon" d="M438 612T403 631T347 682T326 752Q326 789 347 821T403 872T477 891Q514 891 550 873T608 823T631 752Q631 715 610 683T554 631T477 612Q438 612 403 631ZM436 -27T401 -9T346 42T326 111Q326 149 347 181T403 233T477
252Q514 252 550 234T608 183T631 111Q631 74 611 43T555 -8T477 -27Q436 -27 401 -9Z" />
<glyph unicode=";" glyph-name="semicolon" d="M438 612T403 631T347 682T326 752Q326 789 347 821T403 872T477 891Q514 891 550 873T608 823T631 752Q631 715 610 683T554 631T477 612Q438 612 403 631ZM289 -242Q347 -188 385 -131T424 -41Q424 -32 416 -22T389
5Q360 32 343 55T326 106Q326 146 345 179T398 231T477 250Q521 250 560 226T623 158T647 61Q647 -20 587 -120T406 -346L289 -242Z" />
<glyph unicode="&lt;" glyph-name="less" d="M961 80L66 604V723L954 1192V989L315 662L961 299V80Z" />
<glyph unicode="=" glyph-name="equal" d="M84 766V940H950V766H84ZM84 389V563H950V389H84Z" />
<glyph unicode="&gt;" glyph-name="greater" d="M76 80V299L719 662L78 989V1192L971 723V604L76 80Z" />
<glyph unicode="?" glyph-name="question" d="M432 492Q432 554 452 605T502 695T581 786Q624 831 649 863T692 936T709 1022Q709 1101 662 1147T522 1194Q466 1194 420 1178T343 1141T302 1102Q258 1031 258 1026Q258 1025 259 1025Q261 1026 265 1029T272 1032T277
1028L265 1009L250 1018L113 1141Q186 1251 295 1313T530 1376Q644 1376 730 1327T864 1198T911 1026Q911 956 891 904T842 816T764 733Q720 691 695 661T652 588T635 492V379H432V492ZM501 -27T469 -9T418 42T399 113Q399 150 417 181T468 231T539 250Q576 250
607 232T657 182T676 113Q676 75 658 43T608 -8T539 -27Q501 -27 469 -9Z" />
<glyph unicode="@" glyph-name="at" d="M449 -29T324 48T125 279T51 649Q51 861 123 1010T311 1234T557 1309Q751 1309 860 1176T969 776V334H782V397Q755 363 709 341T612 319Q534 319 471 356T371 457T334 602Q334 758 440 842T768 930Q759 1028 700 1087T551
1147Q471 1147 400 1091T284 923T240 651Q240 492 291 376T427 198T614 137Q738 137 836 221L918 70Q848 16 772 -6T602 -29Q449 -29 324 48ZM692 481T722 512T764 606T776 776Q695 775 640 753T557 695T530 616Q530 555 559 518T637 481Q692 481 722 512Z" />
<glyph unicode="A" glyph-name="A" d="M766 0L675 330H349L256 0H20L446 1276H580L1006 0H766ZM394 489H631L514 913L394 489Z" />
<glyph unicode="B" glyph-name="B" d="M82 1276H469Q693 1276 804 1188T915 946Q915 869 873 796T760 684Q819 656 865 607T938 497T965 375Q965 200 841 100T467 0H82V1276ZM451 778Q574 778 629 820T684 934Q684 975 661 1009T589 1064T471 1085H311V778H451ZM489
195Q604 195 664 237T725 381Q725 477 661 534T457 592H311V195H489Z" />
<glyph unicode="C" glyph-name="C" d="M708 147T809 326L983 213Q911 90 805 27T563 -37Q419 -37 305 37T125 261T59 631Q59 868 135 1020T330 1240T582 1309Q727 1309 833 1232T997 1018L831 937L829 936V937Q791 1042 728 1083T588 1124Q440 1124 369 996T297
641Q297 502 332 390T432 212T578 147Q708 147 809 326ZM805 953T808 953Q811 953 817 945T825 934L815 929L805 950Q805 953 808 953ZM834 922Q834 920 831 924T825 934L829 936L834 922Z" />
<glyph unicode="D" glyph-name="D" d="M90 1276H420Q583 1276 679 1233T844 1098Q975 920 975 629Q975 327 835 164T395 0H90V1276ZM391 180Q570 180 657 293T745 623Q745 1085 412 1085H313V180H391Z" />
<glyph unicode="E" glyph-name="E" d="M115 0V1276H946V1079H338V764H842V563H338V197H942V0H115Z" />
<glyph unicode="F" glyph-name="F" d="M139 0V1276H932V1081H369V782H823V590H369V0H139Z" />
<glyph unicode="G" glyph-name="G" d="M518 645H952V109Q861 33 764 -2T553 -37Q389 -37 272 48T94 285T33 639Q33 887 118 1037T321 1248T553 1309Q681 1309 787 1242T956 1059L802 910L801 909Q790 922 770 957Q743 1003 718 1035T651 1090T549 1114Q475 1114
412 1067T310 917T270 653Q270 502 306 390T406 218T553 158Q666 158 735 211V451H518V645ZM774 915Q774 919 777 919Q781 919 798 906L790 898L774 914V915ZM811 897Q811 897 798 906L801 909L811 897Z" />
<glyph unicode="H" glyph-name="H" d="M88 1276H340V1253Q329 1241 326 1227T324 1178V758H700V1276H952V1253Q941 1241 938 1227T936 1178V0H700V567H324V0H88V1276Z" />
<glyph unicode="I" glyph-name="I" d="M150 0V190H397V1085H162V1276H874V1085H627V188H885V0H150Z" />
<glyph unicode="J" glyph-name="J" d="M950 1276V1085H758V412Q758 262 710 162T579 13T393 -35Q291 -35 204 10T51 143L181 291L182 293L184 290Q225 221 268 192T369 162Q426 162 461 190T512 278T528 438V1085H291V1276H950ZM177 302T177 304Q177 305 178 305Q180
305 182 303T188 299L182 293Q177 302 177 304ZM210 288Q210 286 208 286Q205 286 198 291T188 299L193 305L210 290V288Z" />
<glyph unicode="K" glyph-name="K" d="M379 582L324 522V0H88V1276H340V1253Q329 1241 326 1227T324 1178V788L758 1292Q830 1276 877 1276H1018L543 733L1036 2L758 -10L379 582Z" />
<glyph unicode="L" glyph-name="L" d="M125 1276H376V1253Q365 1241 362 1227T360 1178V193H940V0H125V1276Z" />
<glyph unicode="M" glyph-name="M" d="M61 0V1276H303L518 676L731 1278H975V0H768V926L590 444H438L266 926V0H61Z" />
<glyph unicode="N" glyph-name="N" d="M66 1276H346L752 362V1276H974V1253Q963 1241 960 1227T958 1178V0H705L272 965V0H66V1276Z" />
<glyph unicode="O" glyph-name="O" d="M367 -37T259 43T93 276T35 641Q35 850 92 1000T258 1229T518 1309Q669 1309 777 1230T943 1000T1001 641Q1001 429 944 277T778 44T518 -37Q367 -37 259 43ZM594 147T649 209T734 386T764 653Q764 794 735 900T650 1065T518
1124Q443 1124 387 1066T302 901T272 653Q272 501 301 387T386 210T518 147Q594 147 649 209Z" />
<glyph unicode="P" glyph-name="P" d="M102 1276H535Q681 1276 777 1225T919 1088T965 893Q965 785 920 700T781 566T545 516H336V0H102V1276ZM528 711Q630 711 679 759T729 887Q729 971 679 1022T530 1073H336V711H528Z" />
<glyph unicode="Q" glyph-name="Q" d="M569 -299T488 -234T401 -23Q286 8 204 99T78 330T35 641Q35 838 94 989T262 1225T516 1309Q648 1309 755 1234T925 1008T989 639Q989 439 940 300T808 82T621 -23Q624 -60 646 -80T711 -100L913 -92L907 -299H743Q569 -299
488 -234ZM619 172T684 282T750 643Q750 804 717 907T630 1057T518 1104Q408 1104 340 999T272 653Q272 500 303 392T389 228T516 172Q619 172 684 282Z" />
<glyph unicode="R" glyph-name="R" d="M96 1276H500Q729 1276 837 1176T946 895Q946 825 916 755T830 632T702 555L1001 0H743L479 528H330V0H96V1276ZM514 723Q613 723 662 769T711 895Q711 985 664 1029T514 1073H330V723H514Z" />
<glyph unicode="S" glyph-name="S" d="M738 677T810 620T912 499T942 352Q942 250 895 162T747 18T489 -37Q240 -37 57 141L157 315L158 317L160 315Q309 160 508 160Q604 160 656 205T709 340Q709 385 687 421T610 495T459 575Q281 652 201 748T121 971Q121 1063
172 1140T314 1263T518 1309Q645 1309 737 1267T913 1137L798 977L797 975Q796 975 796 975T796 976Q749 1051 676 1085T516 1120Q460 1120 420 1101T359 1049T338 979Q338 934 361 900T442 829T608 739Q738 677 810 620ZM769 978Q769 980 771 980Q773 980 779
975T791 967L788 962L769 975V978ZM804 964T804 961Q804 960 803 960Q800 960 791 967L797 975Q804 964 804 961ZM187 316Q187 314 185 314Q182 314 175 318T162 324L166 331L186 319L187 316ZM150 325T150 328Q150 328 150 328T151 329L162 324L158 317Q150 325
150 328Z" />
<glyph unicode="T" glyph-name="T" d="M387 0V1077H41V1276H981V1077H621V0H387Z" />
<glyph unicode="U" glyph-name="U" d="M299 -29T188 97T76 451V1276H321V1253Q310 1241 307 1227T305 1178V449Q305 308 352 235T512 162Q628 162 675 236T723 455V1276H948V457Q948 215 832 93T510 -29Q299 -29 188 97Z" />
<glyph unicode="V" glyph-name="V" d="M434 0L20 1276H262L530 371L784 1276H1020L610 0H434Z" />
<glyph unicode="W" glyph-name="W" d="M168 0L12 1276H236L309 434L459 1171H606L756 440L809 1276H1022L870 0H690L522 776L352 0H168Z" />
<glyph unicode="X" glyph-name="X" d="M43 0L387 651L47 1276H297L518 858L733 1276H971L653 653L1012 0H754L520 438L293 0H43Z" />
<glyph unicode="Y" glyph-name="Y" d="M412 0V504L18 1276H274L537 760L770 1276H1018L653 502V0H412Z" />
<glyph unicode="Z" glyph-name="Z" d="M84 139L662 1077H106V1276H944V1137L377 197H876Q909 197 924 200T952 215H975V0H84V139Z" />
<glyph unicode="[" glyph-name="bracketleft" d="M242 -184V1370H877V1180H457V0H877V-184H242Z" />
<glyph unicode="\" glyph-name="backslash" d="M743 -96L104 1280L283 1374L922 -10L743 -96Z" />
<glyph unicode="]" glyph-name="bracketright" d="M882 -184H247V0H667V1180H247V1370H882V-184Z" />
<glyph unicode="^" glyph-name="asciicircum" d="M326 680L158 760L469 1280H543L856 760L688 680L508 1034L326 680Z" />
<glyph unicode="_" glyph-name="underscore" d="M59 -207V-16H965V-207H59Z" />
<glyph unicode="`" glyph-name="grave" d="M520 1059L305 1348L444 1448L608 1110L520 1059Z" />
<glyph unicode="a" glyph-name="a" d="M678 987T791 893T905 582V0H686V86Q631 34 554 5T387 -25Q238 -25 160 48T82 248Q82 350 146 422T332 531T623 569H693Q683 694 632 747T477 801Q411 801 340 767T209 670L92 821Q182 903 285 945T489 987Q678 987 791 893ZM563
150T622 214T693 416H647Q471 416 390 378T309 258Q309 202 349 176T461 150Q563 150 622 214Z" />
<glyph unicode="b" glyph-name="b" d="M472 -31T406 1T293 92L262 0H102V1382H348V1359Q337 1347 334 1333T332 1284V874Q376 923 434 950T553 977Q663 977 755 923T901 760T956 498Q956 330 898 210T745 30T545 -31Q472 -31 406 1ZM567 160T614 191T693 291T725
467Q725 613 671 702T510 791Q408 791 369 710T330 489Q330 317 378 239T516 160Q567 160 614 191Z" />
<glyph unicode="c" glyph-name="c" d="M626 164T688 194T805 291L938 137Q861 50 765 9T561 -33Q421 -33 311 32T140 211T78 469Q78 611 139 727T311 910T563 977Q681 977 784 929T946 793L818 643L817 641Q816 641 816 641T816 642Q774 715 714 750T563 786Q493
786 436 746T345 633T311 465Q311 374 342 306T431 201T561 164Q626 164 688 194ZM789 645Q789 648 791 648Q797 648 811 634L807 629L789 644V645ZM823 629T823 627Q823 626 822 626Q819 626 811 634L817 641Q823 629 823 627Z" />
<glyph unicode="d" glyph-name="d" d="M355 -31T262 24T115 191T61 463Q61 619 116 736T265 915T467 977Q523 977 585 950T688 881V1382H938V1359Q927 1347 924 1333T922 1284L918 115Q918 80 922 54T940 0H717Q703 26 701 49T698 115Q668 43 603 6T469 -31Q355
-31 262 24ZM690 160T690 489Q690 627 650 709T508 791Q400 791 347 701T293 467Q293 360 324 291T403 191T502 160Q690 160 690 489Z" />
<glyph unicode="e" glyph-name="e" d="M415 -33T307 27T138 199T76 465Q76 620 134 736T295 914T528 977Q643 977 735 924T882 765T936 510Q936 486 932 442L930 414H303Q318 283 385 217T545 150Q611 150 678 180T788 266L915 139Q770 -33 553 -33Q415 -33 307
27ZM707 582Q707 642 684 693T617 774T516 805Q432 805 377 745T311 582H707Z" />
<glyph unicode="f" glyph-name="f" d="M904 1120L903 1118L902 1119Q839 1176 796 1196T698 1217Q604 1217 556 1161T508 995V956H801V774H508V0H285V774H78V956H285V993Q285 1121 338 1212T481 1351T680 1399Q864 1399 997 1266L904 1120ZM875 1119Q875 1122
878 1122Q881 1122 899 1113L894 1104L875 1117V1119ZM914 1108T914 1106Q914 1106 899 1113L903 1118Q914 1108 914 1106Z" />
<glyph unicode="g" glyph-name="g" d="M928 209T928 -37Q928 -124 879 -196T728 -311T477 -354Q292 -354 199 -292T106 -119Q106 -62 134 -11T217 74Q129 124 129 221Q129 277 158 319T240 398Q186 446 156 512T125 651Q125 744 172 822T300 947T475 993Q536 993
591 974T693 918Q744 947 807 963T937 980Q958 980 969 979L993 805Q946 816 892 816Q831 816 789 803Q825 731 825 651Q825 559 778 480T651 355T475 309Q402 309 333 339Q321 325 316 313T311 285Q311 248 380 229T618 209Q928 209 928 -37ZM436 807T403 786T350
729T330 651Q330 609 349 574T402 517T475 496Q515 496 548 516T601 573T621 651Q621 693 602 729T549 786T475 807Q436 807 403 786ZM606 -184T661 -152T717 -66Q717 -35 703 -17T654 11T555 20Q419 20 340 34Q314 10 303 -13T291 -70Q291 -128 348 -156T508 -184Q606
-184 661 -152Z" />
<glyph unicode="h" glyph-name="h" d="M123 1382H370V1359Q359 1347 356 1333T354 1284V858Q404 913 470 945T604 977Q758 977 843 882T928 580V0H696V578Q696 684 660 736T559 788Q502 788 455 758T381 675T354 553V0H123V1382Z" />
<glyph unicode="i" glyph-name="i" d="M182 0V184H412V772H193V956H641V184H850V0H182ZM473 1122T440 1140T388 1190T369 1257Q369 1316 409 1354T512 1393Q549 1393 582 1375T636 1325T656 1257Q656 1221 636 1190T583 1141T512 1122Q473 1122 440 1140Z" />
<glyph unicode="j" glyph-name="j" d="M766 956V68Q766 -81 716 -177T581 -317T387 -362Q287 -362 206 -323T53 -207L179 -43L180 -41L182 -44Q266 -168 387 -168Q460 -168 497 -119T535 39V770H203V956H766ZM208 -44Q208 -47 206 -47Q202 -47 185 -35L190 -28L208
-42V-44ZM175 -34T175 -30Q175 -30 175 -30T176 -29Q177 -29 179 -31T185 -35L180 -41Q175 -34 175 -30ZM592 1122T559 1140T507 1190T488 1257Q488 1316 528 1354T631 1393Q668 1393 701 1375T755 1325T775 1257Q775 1221 755 1190T702 1141T631 1122Q592 1122
559 1140Z" />
<glyph unicode="k" glyph-name="k" d="M432 432L354 358V0H123V1382H370V1359Q359 1347 356 1333T354 1284V604L721 967Q794 950 838 950H987L596 573L1028 2L748 -8L432 432Z" />
<glyph unicode="l" glyph-name="l" d="M137 0V178H399V1204H150V1382H631V178H891V0H137Z" />
<glyph unicode="m" glyph-name="m" d="M66 967H262V907Q296 952 339 974T430 997Q479 997 523 970T594 883Q631 941 676 969T788 997Q894 997 936 927T979 707V0H766V668Q766 748 752 782T705 817Q627 817 627 629V0H416V657Q416 749 400 783T356 817Q315 817
294 777T272 635V0H66V967Z" />
<glyph unicode="n" glyph-name="n" d="M123 956H354V858Q405 914 475 945T627 977Q763 977 844 881T926 580V0H696V578Q696 686 657 737T539 788Q490 788 448 769T380 710T354 614V0H123V956Z" />
<glyph unicode="o" glyph-name="o" d="M387 -33T283 32T119 213T59 477Q59 616 120 730T285 911T514 977Q638 977 742 911T908 731T969 477Q969 329 909 213T745 32T514 -33Q387 -33 283 32ZM582 152T632 192T710 306T737 477Q737 575 710 646T633 755T514 793Q449
793 400 755T323 646T295 477Q295 379 321 306T397 192T514 152Q582 152 632 192Z" />
<glyph unicode="p" glyph-name="p" d="M111 956H332V838Q376 911 437 944T578 977Q684 977 772 919T914 747T967 473Q967 310 913 197T771 26T580 -31Q504 -31 443 1T342 104V-342H113L111 956ZM587 158T634 193T709 301T737 485Q737 622 691 705T543 788Q438
788 390 701T342 465Q342 310 392 234T528 158Q587 158 634 193Z" />
<glyph unicode="q" glyph-name="q" d="M686 66Q647 21 585 -6T463 -33Q352 -33 260 32T113 215T59 479Q59 627 111 740T256 915T465 977Q525 977 591 950T694 879V956H915V-342H686V66ZM585 162T633 243T682 481Q682 640 631 715T487 791Q433 791 389 755T318
649T291 487Q291 392 318 318T393 203T496 162Q585 162 633 243Z" />
<glyph unicode="r" glyph-name="r" d="M858 666L857 667Q819 729 775 755T672 782Q599 782 540 748T448 649T414 500V0H182V956H418V819Q456 893 529 935T694 977Q765 977 835 951T961 872L858 666ZM829 665Q829 666 830 666Q833 666 840 662T852 655L851 652L830
662L829 665ZM858 666Q864 656 864 652Q864 651 862 651Q859 651 852 655L858 666Z" />
<glyph unicode="s" glyph-name="s" d="M724 535T791 499T889 411T920 283Q920 200 871 128T735 11T543 -33Q399 -33 292 5T96 129L192 297L193 299L195 297Q265 221 346 187T545 152Q709 152 709 260Q709 293 689 317T625 361T504 403Q339 446 248 511T156 692Q156
775 200 839T328 940T524 977Q636 977 728 941T899 829L783 668L782 666Q781 666 781 666T781 667Q739 727 673 760T528 793Q467 793 426 772T385 715Q385 682 407 659T475 616T606 571Q724 535 791 499ZM754 668Q754 670 756 670Q759 670 766 665T777 658L773
653L754 666V668ZM789 655T789 652Q789 651 785 653T777 658L782 666Q789 655 789 652ZM222 298Q222 296 220 296Q217 296 210 300T197 306L201 313L221 301L222 298ZM185 307T185 310Q185 310 185 310T186 311L197 306L193 299Q185 307 185 310Z" />
<glyph unicode="t" glyph-name="t" d="M932 86Q857 30 777 1T602 -29Q453 -29 374 59T295 362Q295 417 301 483L318 770H111L115 956H329L342 1180L594 1222L598 1199Q596 1196 588 1185T575 1158T569 1121L554 956H848L844 770H550L528 498Q523 428 523 386Q523
259 554 209T651 158Q713 158 766 182T883 262L932 86Z" />
<glyph unicode="u" glyph-name="u" d="M267 -41T186 54T104 358V956H330V358Q330 251 366 199T467 147Q524 147 571 177T645 261T672 383V956H903V156Q903 95 906 63T924 0H700Q687 25 684 49T680 111Q640 42 566 1T422 -41Q267 -41 186 54Z" />
<glyph unicode="v" glyph-name="v" d="M938 956Q933 872 907 789T829 575L602 0H414L51 956H279L518 255L655 602Q695 717 715 797T735 956H938Z" />
<glyph unicode="w" glyph-name="w" d="M16 956H242L338 281L457 846H598L733 283Q761 466 771 625T782 893V956H999Q972 719 933 462T852 0H649L524 532L406 0H197L16 956Z" />
<glyph unicode="x" glyph-name="x" d="M51 0L381 485L55 956H313L508 647L694 956H942L637 492L981 0H719L510 324L313 0H51Z" />
<glyph unicode="y" glyph-name="y" d="M930 956Q927 874 904 790T838 588L600 -68Q542 -227 459 -294T256 -362Q189 -362 136 -340T20 -268L95 -104L96 -102Q97 -102 99 -104Q100 -105 119 -121Q160 -153 188 -169T250 -186Q300 -186 344 -136T425 4L63 956H287L527
285L651 627Q681 720 696 790T712 928Q712 947 711 956H930ZM125 -100Q125 -103 121 -103Q118 -103 99 -96L103 -87L124 -97L125 -100ZM87 -95T87 -93Q87 -92 99 -96L96 -102Q87 -95 87 -93Z" />
<glyph unicode="z" glyph-name="z" d="M88 143L584 762H127V956H891V813L401 193H837Q870 193 885 196T913 211H936V0H88V143Z" />
<glyph unicode="{" glyph-name="braceleft" d="M566 -326T469 -292T321 -175T270 53L276 225Q276 322 247 359T158 397H72V580H156Q220 580 250 619T281 743L276 936Q276 1118 375 1211T668 1305H834V1120H633Q567 1120 536 1079T504 956L508 766Q508 676 470
605T362 489Q426 448 465 371T504 197L500 53Q500 -51 544 -98T688 -145H831V-326H717Q566 -326 469 -292Z" />
<glyph unicode="|" glyph-name="bar" d="M403 -309V1335H623V-309H403Z" />
<glyph unicode="}" glyph-name="braceright" d="M115 -326V-145H258Q358 -145 402 -98T446 53L442 197Q442 294 481 371T584 489Q515 533 477 604T438 766L442 956Q442 1038 411 1079T313 1120H112V1305H278Q471 1305 570 1212T670 936L665 743Q665 658 695 619T790
580H874V397H788Q728 397 699 360T670 225L676 53Q676 -92 625 -175T477 -292T229 -326H115Z" />
<glyph unicode="~" glyph-name="asciitilde" d="M644 567T605 585T516 637Q472 666 444 680T379 694Q319 694 280 668T221 578L111 686Q150 781 212 826T371 872Q427 872 471 853T569 800Q611 774 637 762T690 750Q735 750 769 775T844 858L940 731Q894 654 832
611T698 567Q644 567 605 585Z" />
<glyph unicode="&#xa0;" glyph-name="uni00A0" />
<glyph unicode="&#xa1;" glyph-name="exclamdown" d="M531 1222T568 1202T628 1148T651 1075Q651 1038 630 1004T571 948T489 926Q447 926 411 946T354 1001T332 1075Q332 1115 353 1149T410 1202T489 1222Q531 1222 568 1202ZM584 796L637 24Q638 14 638 -4Q638
-92 599 -132T494 -172Q426 -172 388 -131T349 0L350 24L399 796H584Z" />
<glyph unicode="&#xa2;" glyph-name="cent" d="M719 271T805 379L938 225Q863 140 770 99T572 55L545 -150H397L427 72Q322 99 243 168T121 337T78 557Q78 699 139 815T311 998T563 1065L592 1276H733L703 1047Q780 1026 843 984T946 881L818 731L817 729Q816
729 816 729T816 730Q761 825 678 856L598 254Q719 271 805 379ZM311 453T349 381T455 275L537 872Q473 865 422 824T341 712T311 553Q311 453 349 381ZM789 733Q789 736 791 736Q797 736 811 722L807 717L789 732V733ZM823 717T823 715Q823 714 822 714Q819 714
811 722L817 729Q823 717 823 715Z" />
<glyph unicode="&#xa3;" glyph-name="sterling" d="M57 147Q140 180 186 218T252 313T272 463Q272 499 268 545T254 631H121V813H213Q205 857 205 899Q205 1010 255 1099T391 1238T584 1288Q673 1288 746 1254T887 1147L750 977Q747 981 734 1005Q716 1037 701
1056T657 1090T584 1104Q542 1104 506 1081T448 1012T426 901Q426 868 434 813H721V631H477Q484 591 488 545T492 465Q492 398 479 337T432 236Q459 246 487 246Q517 246 544 237T616 209Q655 191 684 182T743 172Q774 172 807 191T897 256L983 80Q913 23 855 -3T727
-29Q690 -29 653 -18T561 15Q506 36 471 46T401 57Q342 57 292 38T139 -35L57 147Z" />
<glyph unicode="&#xa4;" glyph-name="currency" d="M106 430L219 545Q174 624 174 709Q174 799 219 874L106 987L240 1108L350 997Q387 1016 430 1027T514 1038Q598 1038 674 999L784 1108L918 987L805 877Q852 804 852 709Q852 616 805 541L918 430L784 309L676
418Q607 379 514 379Q420 379 348 420L240 309L106 430ZM588 541T626 587T664 707Q664 781 626 827T512 874Q436 874 398 828T360 707Q360 633 398 587T512 541Q588 541 626 587Z" />
<glyph unicode="&#xa5;" glyph-name="yen" d="M989 1276L639 592H891V471H639V365H891V246H639V0H416V246H152V365H416V471H152V592H411L35 1276H289L528 793L750 1276H989Z" />
<glyph unicode="&#xa6;" glyph-name="brokenbar" d="M403 557V1335H623V557H403ZM403 -309V446H623V-309H403Z" />
<glyph unicode="&#xa7;" glyph-name="section" d="M375 -117T278 -65T109 86L250 252Q264 252 270 246T283 219Q291 190 322 159T395 106T481 84Q550 84 589 119T629 203Q629 238 612 263T555 311T440 356Q282 406 212 477T141 649Q141 688 161 731T216 810T295
864Q240 896 205 955T170 1073Q170 1155 216 1227T343 1342T524 1386Q635 1386 725 1327T874 1167L705 1020Q687 1024 682 1033T672 1075Q662 1126 620 1163T522 1200Q488 1200 461 1184T417 1141T401 1083Q401 1045 424 1017T495 964T627 909Q726 874 800 802T874
629Q874 567 837 510T743 426Q797 385 826 331T856 217Q856 124 809 48T678 -73T487 -117Q375 -117 278 -65ZM624 522T631 546T639 598Q639 700 477 756L412 778Q394 770 384 742T373 686Q373 638 414 598T535 532Q540 530 557 526T610 510Q624 522 631 546Z" />
<glyph unicode="&#xa8;" glyph-name="dieresis" d="M288 1122T255 1140T203 1188T184 1253Q184 1288 203 1319T255 1368T326 1386Q362 1386 395 1369T448 1322T469 1253Q469 1218 450 1188T397 1140T326 1122Q288 1122 255 1140ZM664 1122T632 1139T580 1187T561
1253Q561 1289 580 1319T631 1368T702 1386Q737 1386 770 1369T823 1322T844 1253Q844 1218 825 1188T773 1140T702 1122Q664 1122 632 1139Z" />
<glyph unicode="&#xa9;" glyph-name="copyright" d="M370 37T256 107T76 298T10 559Q10 700 78 820T262 1010T514 1081Q648 1081 764 1011T949 820T1018 559Q1018 347 868 193Q796 117 704 77T506 37Q370 37 256 107ZM613 156T696 211T828 360T877 561Q877 669
829 762T697 911T516 967Q417 967 335 913T204 765T156 559Q156 449 204 357T334 210T516 156Q613 156 696 211ZM430 240T362 284T256 403T219 565Q219 652 258 724T362 837T504 879Q626 879 702 817T803 653L643 596Q634 599 632 606T627 628Q627 642 623 653Q612
686 584 705T520 725Q472 725 438 689T403 575Q403 494 434 446T526 397Q571 397 601 422T651 500L795 408Q751 330 678 285T518 240Q430 240 362 284Z" />
<glyph unicode="&#xaa;" glyph-name="ordfeminine" d="M360 514T304 544T215 626T182 745Q182 863 279 919T535 975Q582 975 621 971Q621 1047 595 1079T516 1112Q468 1112 425 1092T334 1030L221 1143Q289 1213 363 1244T528 1276Q670 1276 747 1206T825 1001V535H623V627Q594
568 547 541T426 514Q360 514 304 544ZM539 676T583 714T627 842Q589 845 560 845Q468 845 430 821T391 748Q391 720 415 698T479 676Q539 676 583 714ZM141 293V453H889V293H141Z" />
<glyph unicode="&#xab;" glyph-name="guillemotleft" d="M463 96L121 465V532L457 856L559 745L315 496L575 203L463 96ZM805 96L463 465V532L797 856L909 739L655 496L924 205L805 96Z" />
<glyph unicode="&#xac;" glyph-name="logicalnot" d="M653 315V555H166V750H868V315H653Z" />
<glyph unicode="&#xad;" glyph-name="uni00AD" d="M131 563V750H899V563H131Z" />
<glyph unicode="&#xae;" glyph-name="registered" d="M370 37T256 107T76 298T10 559Q10 700 78 820T262 1010T514 1081Q648 1081 764 1011T949 820T1018 559Q1018 347 868 193Q796 117 704 77T506 37Q370 37 256 107ZM613 156T696 211T828 360T877 561Q877 669
829 762T697 911T516 967Q417 967 335 913T204 765T156 559Q156 449 204 357T334 210T516 156Q613 156 696 211ZM502 504H446V281H305V856H496Q752 856 752 682Q752 632 724 591T647 526L766 295L616 272L502 504ZM502 618Q594 618 594 678Q594 731 496 731H446V618H502Z"
/>
<glyph unicode="&#xaf;" glyph-name="overscore" d="M221 1184V1315H795V1184H221Z" />
<glyph unicode="&#xb0;" glyph-name="degree" d="M441 782T372 821T263 926T223 1073Q223 1153 264 1220T375 1325T524 1364Q606 1364 675 1324T784 1217T825 1073Q825 996 785 929T675 822T524 782Q441 782 372 821ZM572 948T602 983T633 1075Q633 1131 603 1167T524
1204Q477 1204 448 1168T418 1075Q418 1019 447 984T524 948Q572 948 602 983Z" />
<glyph unicode="&#xb1;" glyph-name="plusminus" d="M412 313V666H78V856H412V1180H625V856H946V666H625V313H412ZM80 33V225H948V33H80Z" />
<glyph unicode="&#xb2;" glyph-name="uni00B2" d="M862 731V537H242V686Q279 719 381 807Q470 882 516 926T591 1016T621 1108Q621 1146 595 1167T524 1188Q491 1188 461 1181T411 1164T388 1150Q342 1080 342 1074Q342 1073 343 1073Q345 1074 349 1077T357 1080T362
1076L349 1057L334 1067L209 1165Q269 1260 350 1309T549 1358Q624 1358 685 1329T780 1247T815 1124Q815 1056 783 1000T699 896T545 768L476 713H763Q796 713 811 716T839 731H862Z" />
<glyph unicode="&#xb3;" glyph-name="uni00B3" d="M763 931T801 886T840 776Q840 702 797 642T679 548T518 514Q412 514 330 553T176 674L302 819L303 820Q321 757 379 723T504 688Q563 688 603 715T643 791Q643 832 614 855T524 879Q479 879 428 874V1016Q467
1012 526 1012Q565 1012 591 1037T618 1106Q618 1151 588 1172T504 1194Q458 1194 410 1172T330 1112L205 1210Q263 1284 340 1321T518 1358Q602 1358 668 1327T770 1246T807 1141Q807 1082 779 1035T694 958Q763 931 801 886ZM300 831T300 834Q300 838 302 838Q305
838 312 831L303 820Q300 831 300 834ZM331 816Q331 814 330 814Q328 814 322 821T312 831L313 833L331 818V816Z" />
<glyph unicode="&#xb4;" glyph-name="acute" d="M522 1059L434 1110L598 1448L737 1348L522 1059Z" />
<glyph unicode="&#xb5;" glyph-name="uni00B5" d="M20 -193T57 418V936H276V387Q276 263 313 213T414 156Q474 168 514 223T555 383V936H770V256Q770 164 797 164Q809 164 823 179T846 213L899 315L1004 121Q906 -18 786 -18Q733 -18 690 4T621 68Q577 27 518
5T399 -18Q354 -18 310 -6T231 29V-315H20Q20 -193 57 418Z" />
<glyph unicode="&#xb6;" glyph-name="paragraph" d="M442 649Q346 663 269 715T148 848T104 1022Q104 1118 154 1195T319 1318T616 1364H971V-141H768V1182H647V-141H442V649Z" />
<glyph unicode="&#xb7;" glyph-name="middot" d="M444 537T408 556T351 608T330 682Q330 721 352 754T410 807T487 827Q528 827 565 807T626 752T649 682Q649 643 628 610T569 557T487 537Q444 537 408 556Z" />
<glyph unicode="&#xb8;" glyph-name="cedilla" d="M410 -420T295 -305L371 -172Q429 -233 476 -257T578 -281Q624 -281 648 -267T672 -227Q672 -204 650 -193T575 -182H475L500 0H664L655 -63Q732 -71 773 -109T815 -209Q815 -260 786 -308T697 -388T553 -420Q410
-420 295 -305Z" />
<glyph unicode="&#xb9;" glyph-name="uni00B9" d="M494 539V1110L305 1042L246 1161L563 1329H678V539H494Z" />
<glyph unicode="&#xba;" glyph-name="ordmasculine" d="M411 543T336 590T218 722T174 915Q174 1028 220 1118T344 1258T510 1309Q602 1309 676 1265T793 1135T836 930Q836 812 790 724T668 590T502 543Q411 543 336 590ZM538 729T566 751T612 818T629 922Q629
984 612 1030T567 1101T506 1126Q472 1126 444 1102T398 1032T381 924Q381 864 397 820T442 752T504 729Q538 729 566 751ZM137 307V483H889V307H137Z" />
<glyph unicode="&#xbb;" glyph-name="guillemotright" d="M256 96L137 205L406 496L152 739L264 856L598 532V465L256 96ZM598 96L486 203L746 496L502 745L604 856L940 532V465L598 96Z" />
<glyph unicode="&#xbc;" glyph-name="onequarter" d="M180 748V1198L47 1163L0 1257L240 1386H365V748H180ZM252 -88L123 -8L758 1374L889 1290L252 -88ZM735 -143V8H457V100L782 514H911V135H1008V8H911V-143H735ZM637 131H737V258L637 131Z" />
<glyph unicode="&#xbd;" glyph-name="onehalf" d="M180 748V1198L47 1163L0 1257L240 1386H365V748H180ZM211 -88L82 -8L717 1374L848 1290L211 -88ZM514 -45Q578 31 731 168L752 186Q789 218 809 241T829 289Q829 323 804 344T741 365Q677 365 653 293Q652 288
648 274T635 248L500 336Q552 419 619 460T782 502Q844 502 896 473T978 397T1008 295Q1008 249 993 217T939 149T821 57Q790 35 743 -6H967Q972 -5 987 4Q1005 18 1022 18V-150H514V-45Z" />
<glyph unicode="&#xbe;" glyph-name="threequarters" d="M184 756T122 787T0 885L117 1014Q127 1005 132 996T142 976T150 958Q161 937 191 918T260 899Q303 899 330 915T358 963Q358 996 335 1011T260 1026Q244 1026 182 1020V1171Q202 1163 216 1160T256 1157Q294
1157 314 1171T334 1206Q334 1231 313 1250T258 1270Q223 1270 189 1249T117 1182L23 1284Q125 1409 264 1409Q329 1409 383 1383T470 1312T502 1214Q502 1181 481 1148T428 1100Q471 1077 499 1040T528 963Q528 903 491 856T392 783T258 756Q184 756 122 787ZM313
-88L184 -8L819 1374L950 1290L313 -88ZM737 -143V8H459V100L784 514H913V135H1010V8H913V-143H737ZM639 131H739V258L639 131Z" />
<glyph unicode="&#xbf;" glyph-name="questiondown" d="M519 1178T551 1160T602 1109T621 1038Q621 1001 603 970T552 920T481 901Q444 901 413 919T363 969T344 1038Q344 1076 362 1108T412 1159T481 1178Q519 1178 551 1160ZM588 659Q588 597 568 546T518 456T439
365Q396 320 371 288T328 215T311 129Q311 50 358 4T498 -43Q553 -43 599 -27T676 10T718 49Q762 120 762 125Q762 126 758 124T749 120T743 123L755 142L770 133L907 10Q834 -100 725 -162T490 -225Q376 -225 290 -176T156 -47T109 125Q109 195 129 247T178 335T256
418Q300 460 325 490T368 563T385 659V772H588V659Z" />
<glyph unicode="&#xc0;" glyph-name="Agrave" d="M766 0L675 330H349L256 0H20L446 1276H580L1006 0H766ZM394 489H631L514 913L394 489ZM671 1339L303 1468L399 1645L712 1413L671 1339Z" />
<glyph unicode="&#xc1;" glyph-name="Aacute" d="M766 0L675 330H349L256 0H20L446 1276H580L1006 0H766ZM394 489H631L514 913L394 489ZM356 1339L315 1413L629 1645L725 1468L356 1339Z" />
<glyph unicode="&#xc2;" glyph-name="Acircumflex" d="M766 0L675 330H349L256 0H20L446 1276H580L1006 0H766ZM394 489H631L514 913L394 489ZM225 1329L152 1417L481 1638H545L868 1421L791 1329L514 1464L225 1329Z" />
<glyph unicode="&#xc3;" glyph-name="Atilde" d="M766 0L675 330H349L256 0H20L446 1276H580L1006 0H766ZM394 489H631L514 913L394 489ZM863 1579Q824 1501 773 1458T662 1415Q618 1415 587 1432T513 1485Q481 1514 457 1528T404 1542Q360 1542 333 1520T283
1441L156 1493Q188 1585 250 1632T396 1679Q444 1679 479 1661T556 1607Q588 1581 609 1569T654 1556Q679 1556 698 1576T740 1642L863 1579Z" />
<glyph unicode="&#xc4;" glyph-name="Adieresis" d="M766 0L675 330H349L256 0H20L446 1276H580L1006 0H766ZM394 489H631L514 913L394 489ZM287 1399T255 1416T203 1464T184 1530Q184 1565 203 1596T254 1645T325 1663Q366 1663 399 1644T450 1595T469 1530Q469
1495 450 1465T397 1417T325 1399Q287 1399 255 1416ZM663 1399T631 1416T580 1464T561 1530Q561 1566 580 1596T631 1645T702 1663Q743 1663 775 1644T825 1594T843 1530Q843 1495 824 1465T773 1417T702 1399Q663 1399 631 1416Z" />
<glyph unicode="&#xc5;" glyph-name="Aring" d="M675 330H349L256 0H20L445 1273Q382 1294 342 1347T301 1466Q301 1521 329 1567T406 1641T512 1669Q570 1669 619 1642T697 1568T727 1466Q727 1400 686 1347T581 1273L1006 0H766L675 330ZM486 1546T468 1523T449
1468Q449 1436 467 1415T514 1393Q542 1393 561 1414T580 1468Q580 1500 561 1523T514 1546Q486 1546 468 1523ZM394 489H631L514 913L394 489Z" />
<glyph unicode="&#xc6;" glyph-name="AE" d="M0 0L393 1276H1020V1081H698V764H969V563H698V197H1016V0H485V326H311L221 0H0ZM362 514H487V967H483L362 514Z" />
<glyph unicode="&#xc7;" glyph-name="Ccedilla" d="M708 147T809 326L983 213Q863 10 658 -29L653 -63Q730 -71 771 -109T813 -209Q813 -260 784 -308T695 -388T551 -420Q408 -420 293 -305L369 -172Q427 -233 474 -257T576 -281Q622 -281 646 -267T670 -227Q670
-204 648 -193T573 -182H473L494 -32Q367 -15 269 64T115 286T59 631Q59 868 135 1020T330 1240T582 1309Q727 1309 833 1232T997 1018L831 937L829 936V937Q791 1042 728 1083T588 1124Q440 1124 369 996T297 641Q297 502 332 390T432 212T578 147Q708 147 809
326ZM805 953T808 953Q811 953 817 945T825 934L815 929L805 950Q805 953 808 953ZM834 922Q834 920 831 924T825 934L829 936L834 922Z" />
<glyph unicode="&#xc8;" glyph-name="Egrave" d="M115 0V1276H946V1079H338V764H842V563H338V197H942V0H115ZM710 1339L342 1468L438 1645L751 1413L710 1339Z" />
<glyph unicode="&#xc9;" glyph-name="Eacute" d="M115 0V1276H946V1079H338V764H842V563H338V197H942V0H115ZM395 1339L354 1413L668 1645L764 1468L395 1339Z" />
<glyph unicode="&#xca;" glyph-name="Ecircumflex" d="M115 0V1276H946V1079H338V764H842V563H338V197H942V0H115ZM264 1329L191 1417L520 1638H584L907 1421L830 1329L553 1464L264 1329Z" />
<glyph unicode="&#xcb;" glyph-name="Edieresis" d="M115 0V1276H946V1079H338V764H842V563H338V197H942V0H115ZM326 1399T294 1416T242 1464T223 1530Q223 1565 242 1596T293 1645T364 1663Q405 1663 438 1644T489 1595T508 1530Q508 1495 489 1465T436 1417T364
1399Q326 1399 294 1416ZM702 1399T670 1416T619 1464T600 1530Q600 1566 619 1596T670 1645T741 1663Q782 1663 814 1644T864 1594T882 1530Q882 1495 863 1465T812 1417T741 1399Q702 1399 670 1416Z" />
<glyph unicode="&#xcc;" glyph-name="Igrave" d="M150 0V190H397V1085H162V1276H874V1085H627V188H885V0H150ZM669 1339L301 1468L397 1645L710 1413L669 1339Z" />
<glyph unicode="&#xcd;" glyph-name="Iacute" d="M150 0V190H397V1085H162V1276H874V1085H627V188H885V0H150ZM354 1339L313 1413L627 1645L723 1468L354 1339Z" />
<glyph unicode="&#xce;" glyph-name="Icircumflex" d="M150 0V190H397V1085H162V1276H874V1085H627V188H885V0H150ZM223 1329L150 1417L479 1638H543L866 1421L789 1329L512 1464L223 1329Z" />
<glyph unicode="&#xcf;" glyph-name="Idieresis" d="M150 0V190H397V1085H162V1276H874V1085H627V188H885V0H150ZM285 1399T253 1416T201 1464T182 1530Q182 1565 201 1596T252 1645T323 1663Q364 1663 397 1644T448 1595T467 1530Q467 1495 448 1465T395 1417T323
1399Q285 1399 253 1416ZM661 1399T629 1416T578 1464T559 1530Q559 1566 578 1596T629 1645T700 1663Q741 1663 773 1644T823 1594T841 1530Q841 1495 822 1465T771 1417T700 1399Q661 1399 629 1416Z" />
<glyph unicode="&#xd0;" glyph-name="Eth" d="M90 580H10V768H90V1276H420Q583 1276 679 1233T844 1098Q975 920 975 629Q975 327 835 164T395 0H90V580ZM391 180Q570 180 657 293T745 623Q745 1085 412 1085H313V768H506V580H313V180H391Z" />
<glyph unicode="&#xd1;" glyph-name="Ntilde" d="M66 1276H346L752 362V1276H974V1253Q963 1241 960 1227T958 1178V0H705L272 965V0H66V1276ZM861 1579Q822 1501 771 1458T660 1415Q616 1415 585 1432T511 1485Q479 1514 455 1528T402 1542Q358 1542 331 1520T281
1441L154 1493Q186 1585 248 1632T394 1679Q442 1679 477 1661T554 1607Q586 1581 607 1569T652 1556Q677 1556 696 1576T738 1642L861 1579Z" />
<glyph unicode="&#xd2;" glyph-name="Ograve" d="M367 -37T259 43T93 276T35 641Q35 850 92 1000T258 1229T518 1309Q669 1309 777 1230T943 1000T1001 641Q1001 429 944 277T778 44T518 -37Q367 -37 259 43ZM594 147T649 209T734 386T764 653Q764 794 735 900T650
1065T518 1124Q443 1124 387 1066T302 901T272 653Q272 501 301 387T386 210T518 147Q594 147 649 209ZM673 1339L305 1468L401 1645L714 1413L673 1339Z" />
<glyph unicode="&#xd3;" glyph-name="Oacute" d="M367 -37T259 43T93 276T35 641Q35 850 92 1000T258 1229T518 1309Q669 1309 777 1230T943 1000T1001 641Q1001 429 944 277T778 44T518 -37Q367 -37 259 43ZM594 147T649 209T734 386T764 653Q764 794 735 900T650
1065T518 1124Q443 1124 387 1066T302 901T272 653Q272 501 301 387T386 210T518 147Q594 147 649 209ZM358 1339L317 1413L631 1645L727 1468L358 1339Z" />
<glyph unicode="&#xd4;" glyph-name="Ocircumflex" d="M367 -37T259 43T93 276T35 641Q35 850 92 1000T258 1229T518 1309Q669 1309 777 1230T943 1000T1001 641Q1001 429 944 277T778 44T518 -37Q367 -37 259 43ZM594 147T649 209T734 386T764 653Q764 794 735
900T650 1065T518 1124Q443 1124 387 1066T302 901T272 653Q272 501 301 387T386 210T518 147Q594 147 649 209ZM227 1329L154 1417L483 1638H547L870 1421L793 1329L516 1464L227 1329Z" />
<glyph unicode="&#xd5;" glyph-name="Otilde" d="M367 -37T259 43T93 276T35 641Q35 850 92 1000T258 1229T518 1309Q669 1309 777 1230T943 1000T1001 641Q1001 429 944 277T778 44T518 -37Q367 -37 259 43ZM594 147T649 209T734 386T764 653Q764 794 735 900T650
1065T518 1124Q443 1124 387 1066T302 901T272 653Q272 501 301 387T386 210T518 147Q594 147 649 209ZM865 1579Q826 1501 775 1458T664 1415Q620 1415 589 1432T515 1485Q483 1514 459 1528T406 1542Q362 1542 335 1520T285 1441L158 1493Q190 1585 252 1632T398
1679Q446 1679 481 1661T558 1607Q590 1581 611 1569T656 1556Q681 1556 700 1576T742 1642L865 1579Z" />
<glyph unicode="&#xd6;" glyph-name="Odieresis" d="M367 -37T259 43T93 276T35 641Q35 850 92 1000T258 1229T518 1309Q669 1309 777 1230T943 1000T1001 641Q1001 429 944 277T778 44T518 -37Q367 -37 259 43ZM594 147T649 209T734 386T764 653Q764 794 735
900T650 1065T518 1124Q443 1124 387 1066T302 901T272 653Q272 501 301 387T386 210T518 147Q594 147 649 209ZM289 1399T257 1416T205 1464T186 1530Q186 1565 205 1596T256 1645T327 1663Q368 1663 401 1644T452 1595T471 1530Q471 1495 452 1465T399 1417T327
1399Q289 1399 257 1416ZM665 1399T633 1416T582 1464T563 1530Q563 1566 582 1596T633 1645T704 1663Q745 1663 777 1644T827 1594T845 1530Q845 1495 826 1465T775 1417T704 1399Q665 1399 633 1416Z" />
<glyph unicode="&#xd7;" glyph-name="multiply" d="M758 289L520 541L285 299L141 442L379 688L141 940L291 1085L524 840L758 1083L911 944L668 690L905 438L758 289Z" />
<glyph unicode="&#xd8;" glyph-name="Oslash" d="M925 1072T963 941T1001 641Q1001 429 944 277T778 44T518 -37Q371 -37 262 41L180 -115L66 -45L165 140Q102 228 69 355T35 641Q35 850 92 1000T258 1229T518 1309Q652 1309 753 1246L834 1397L948 1339L853 1159Q925
1072 963 941ZM272 508T300 394L655 1060Q596 1124 518 1124Q443 1124 387 1066T302 901T272 653Q272 508 300 394ZM594 147T649 209T734 386T764 653Q764 812 728 923L366 237Q428 147 518 147Q594 147 649 209Z" />
<glyph unicode="&#xd9;" glyph-name="Ugrave" d="M299 -29T188 97T76 451V1276H321V1253Q310 1241 307 1227T305 1178V449Q305 308 352 235T512 162Q628 162 675 236T723 455V1276H948V457Q948 215 832 93T510 -29Q299 -29 188 97ZM669 1339L301 1468L397 1645L710
1413L669 1339Z" />
<glyph unicode="&#xda;" glyph-name="Uacute" d="M299 -29T188 97T76 451V1276H321V1253Q310 1241 307 1227T305 1178V449Q305 308 352 235T512 162Q628 162 675 236T723 455V1276H948V457Q948 215 832 93T510 -29Q299 -29 188 97ZM354 1339L313 1413L627 1645L723
1468L354 1339Z" />
<glyph unicode="&#xdb;" glyph-name="Ucircumflex" d="M299 -29T188 97T76 451V1276H321V1253Q310 1241 307 1227T305 1178V449Q305 308 352 235T512 162Q628 162 675 236T723 455V1276H948V457Q948 215 832 93T510 -29Q299 -29 188 97ZM223 1329L150 1417L479
1638H543L866 1421L789 1329L512 1464L223 1329Z" />
<glyph unicode="&#xdc;" glyph-name="Udieresis" d="M299 -29T188 97T76 451V1276H321V1253Q310 1241 307 1227T305 1178V449Q305 308 352 235T512 162Q628 162 675 236T723 455V1276H948V457Q948 215 832 93T510 -29Q299 -29 188 97ZM285 1399T253 1416T201 1464T182
1530Q182 1565 201 1596T252 1645T323 1663Q364 1663 397 1644T448 1595T467 1530Q467 1495 448 1465T395 1417T323 1399Q285 1399 253 1416ZM661 1399T629 1416T578 1464T559 1530Q559 1566 578 1596T629 1645T700 1663Q741 1663 773 1644T823 1594T841 1530Q841
1495 822 1465T771 1417T700 1399Q661 1399 629 1416Z" />
<glyph unicode="&#xdd;" glyph-name="Yacute" d="M412 0V504L18 1276H274L537 760L770 1276H1018L653 502V0H412ZM354 1339L313 1413L627 1645L723 1468L354 1339Z" />
<glyph unicode="&#xde;" glyph-name="Thorn" d="M102 1276H352Q356 1272 356 1266Q356 1262 349 1246T338 1204V1057H535Q681 1057 777 1006T919 869T965 674Q965 566 920 481T781 347T545 297H336V0H102V1276ZM528 492Q630 492 679 540T729 668Q729 718 707 760T640
828T530 854H338L336 492H528Z" />
<glyph unicode="&#xdf;" glyph-name="germandbls" d="M506 -31T454 -16T342 33L457 213Q484 188 510 176T567 164Q607 164 640 190T692 264T711 377Q711 449 685 505T606 594T479 627H377V809H492Q569 809 616 858T664 997Q664 1087 617 1142T483 1198Q299 1198
299 920V0H78V895Q78 1139 186 1260T483 1382Q602 1382 686 1334T814 1208T858 1042Q858 948 808 865T664 739Q797 698 863 602T930 360Q930 246 889 158T767 19T573 -31Q506 -31 454 -16Z" />
<glyph unicode="&#xe0;" glyph-name="agrave" d="M678 987T791 893T905 582V0H686V86Q631 34 554 5T387 -25Q238 -25 160 48T82 248Q82 350 146 422T332 531T623 569H693Q683 694 632 747T477 801Q411 801 340 767T209 670L92 821Q182 903 285 945T489 987Q678
987 791 893ZM563 150T622 214T693 416H647Q471 416 390 378T309 258Q309 202 349 176T461 150Q563 150 622 214ZM482 1059L267 1348L406 1448L570 1110L482 1059Z" />
<glyph unicode="&#xe1;" glyph-name="aacute" d="M678 987T791 893T905 582V0H686V86Q631 34 554 5T387 -25Q238 -25 160 48T82 248Q82 350 146 422T332 531T623 569H693Q683 694 632 747T477 801Q411 801 340 767T209 670L92 821Q182 903 285 945T489 987Q678
987 791 893ZM563 150T622 214T693 416H647Q471 416 390 378T309 258Q309 202 349 176T461 150Q563 150 622 214ZM441 1059L353 1110L517 1448L656 1348L441 1059Z" />
<glyph unicode="&#xe2;" glyph-name="acircumflex" d="M678 987T791 893T905 582V0H686V86Q631 34 554 5T387 -25Q238 -25 160 48T82 248Q82 350 146 422T332 531T623 569H693Q683 694 632 747T477 801Q411 801 340 767T209 670L92 821Q182 903 285 945T489 987Q678
987 791 893ZM563 150T622 214T693 416H647Q471 416 390 378T309 258Q309 202 349 176T461 150Q563 150 622 214ZM232 1051L144 1130L461 1427H523L840 1130L752 1051L492 1282L232 1051Z" />
<glyph unicode="&#xe3;" glyph-name="atilde" d="M678 987T791 893T905 582V0H686V86Q631 34 554 5T387 -25Q238 -25 160 48T82 248Q82 350 146 422T332 531T623 569H693Q683 694 632 747T477 801Q411 801 340 767T209 670L92 821Q182 903 285 945T489 987Q678
987 791 893ZM563 150T622 214T693 416H647Q471 416 390 378T309 258Q309 202 349 176T461 150Q563 150 622 214ZM841 1305Q802 1227 751 1184T640 1141Q596 1141 565 1158T491 1211Q459 1240 435 1254T382 1268Q338 1268 311 1246T261 1167L134 1219Q166 1311
228 1358T374 1405Q422 1405 457 1387T534 1333Q566 1307 587 1295T632 1282Q657 1282 676 1302T718 1368L841 1305Z" />
<glyph unicode="&#xe4;" glyph-name="adieresis" d="M678 987T791 893T905 582V0H686V86Q631 34 554 5T387 -25Q238 -25 160 48T82 248Q82 350 146 422T332 531T623 569H693Q683 694 632 747T477 801Q411 801 340 767T209 670L92 821Q182 903 285 945T489 987Q678
987 791 893ZM563 150T622 214T693 416H647Q471 416 390 378T309 258Q309 202 349 176T461 150Q563 150 622 214ZM266 1122T233 1140T181 1188T162 1253Q162 1288 181 1319T233 1368T304 1386Q340 1386 373 1369T426 1322T447 1253Q447 1218 428 1188T375 1140T304
1122Q266 1122 233 1140ZM642 1122T610 1139T558 1187T539 1253Q539 1289 558 1319T609 1368T680 1386Q715 1386 748 1369T801 1322T822 1253Q822 1218 803 1188T751 1140T680 1122Q642 1122 610 1139Z" />
<glyph unicode="&#xe5;" glyph-name="aring" d="M678 987T791 893T905 582V0H686V86Q631 34 554 5T387 -25Q238 -25 160 48T82 248Q82 350 146 422T332 531T623 569H693Q683 694 632 747T477 801Q411 801 340 767T209 670L92 821Q182 903 285 945T489 987Q678
987 791 893ZM563 150T622 214T693 416H647Q471 416 390 378T309 258Q309 202 349 176T461 150Q563 150 622 214ZM433 1049T385 1076T308 1151T279 1253Q279 1308 307 1354T384 1428T490 1456Q548 1456 597 1429T675 1355T705 1253Q705 1198 676 1151T597 1077T490
1049Q433 1049 385 1076ZM520 1180T539 1201T558 1255Q558 1287 539 1310T492 1333Q464 1333 445 1310T426 1255Q426 1223 445 1202T492 1180Q520 1180 539 1201Z" />
<glyph unicode="&#xe6;" glyph-name="ae" d="M217 -25T150 8T44 107T4 264Q4 361 55 436T199 554T418 602Q418 700 387 755T299 811Q216 811 147 698L35 842Q86 908 156 941T309 975Q369 975 432 941T530 858Q564 909 616 942T723 975Q869 975 940 864T1012 555V455L606
438V365Q606 265 650 204T768 143Q850 143 911 248L1024 109Q970 44 902 10T758 -25Q689 -25 628 8T524 100Q489 44 427 10T299 -25Q217 -25 150 8ZM848 614Q848 677 832 721T788 788T729 811Q692 811 664 784T621 710T606 608L848 614ZM357 150T382 175T416 258T424
430Q308 424 256 380T203 264Q203 208 231 179T303 150Q357 150 382 175Z" />
<glyph unicode="&#xe7;" glyph-name="ccedilla" d="M626 164T688 194T805 291L938 137Q823 7 659 -24L653 -63Q730 -71 771 -109T813 -209Q813 -260 784 -308T695 -388T551 -420Q408 -420 293 -305L369 -172Q427 -233 474 -257T576 -281Q622 -281 646 -267T670
-227Q670 -204 648 -193T573 -182H473L494 -29Q371 -14 277 54T130 229T78 469Q78 611 139 727T311 910T563 977Q681 977 784 929T946 793L818 643L817 641Q816 641 816 641T816 642Q774 715 714 750T563 786Q493 786 436 746T345 633T311 465Q311 374 342 306T431
201T561 164Q626 164 688 194ZM789 645Q789 648 791 648Q797 648 811 634L807 629L789 644V645ZM823 629T823 627Q823 626 822 626Q819 626 811 634L817 641Q823 629 823 627Z" />
<glyph unicode="&#xe8;" glyph-name="egrave" d="M415 -33T307 27T138 199T76 465Q76 620 134 736T295 914T528 977Q643 977 735 924T882 765T936 510Q936 486 932 442L930 414H303Q318 283 385 217T545 150Q611 150 678 180T788 266L915 139Q770 -33 553 -33Q415
-33 307 27ZM707 582Q707 642 684 693T617 774T516 805Q432 805 377 745T311 582H707ZM518 1059L303 1348L442 1448L606 1110L518 1059Z" />
<glyph unicode="&#xe9;" glyph-name="eacute" d="M415 -33T307 27T138 199T76 465Q76 620 134 736T295 914T528 977Q643 977 735 924T882 765T936 510Q936 486 932 442L930 414H303Q318 283 385 217T545 150Q611 150 678 180T788 266L915 139Q770 -33 553 -33Q415
-33 307 27ZM707 582Q707 642 684 693T617 774T516 805Q432 805 377 745T311 582H707ZM477 1059L389 1110L553 1448L692 1348L477 1059Z" />
<glyph unicode="&#xea;" glyph-name="ecircumflex" d="M415 -33T307 27T138 199T76 465Q76 620 134 736T295 914T528 977Q643 977 735 924T882 765T936 510Q936 486 932 442L930 414H303Q318 283 385 217T545 150Q611 150 678 180T788 266L915 139Q770 -33 553
-33Q415 -33 307 27ZM707 582Q707 642 684 693T617 774T516 805Q432 805 377 745T311 582H707ZM268 1051L180 1130L497 1427H559L876 1130L788 1051L528 1282L268 1051Z" />
<glyph unicode="&#xeb;" glyph-name="edieresis" d="M415 -33T307 27T138 199T76 465Q76 620 134 736T295 914T528 977Q643 977 735 924T882 765T936 510Q936 486 932 442L930 414H303Q318 283 385 217T545 150Q611 150 678 180T788 266L915 139Q770 -33 553 -33Q415
-33 307 27ZM707 582Q707 642 684 693T617 774T516 805Q432 805 377 745T311 582H707ZM302 1122T269 1140T217 1188T198 1253Q198 1288 217 1319T269 1368T340 1386Q376 1386 409 1369T462 1322T483 1253Q483 1218 464 1188T411 1140T340 1122Q302 1122 269 1140ZM678
1122T646 1139T594 1187T575 1253Q575 1289 594 1319T645 1368T716 1386Q751 1386 784 1369T837 1322T858 1253Q858 1218 839 1188T787 1140T716 1122Q678 1122 646 1139Z" />
<glyph unicode="&#xec;" glyph-name="igrave" d="M182 0V184H412V772H193V956H641V184H850V0H182ZM725 1059L510 1348L676 1462L840 1126L725 1059Z" />
<glyph unicode="&#xed;" glyph-name="iacute" d="M182 0V184H412V772H193V956H641V184H850V0H182ZM762 1059L674 1110L838 1448L977 1348L762 1059Z" />
<glyph unicode="&#xee;" glyph-name="icircumflex" d="M182 0V184H412V772H193V956H641V184H850V0H182ZM930 1051L731 1241L510 1051L428 1130L704 1427H770L1046 1128L930 1051Z" />
<glyph unicode="&#xef;" glyph-name="idieresis" d="M182 0V184H412V772H193V956H641V184H850V0H182ZM528 1122T495 1140T443 1188T424 1253Q424 1288 443 1319T495 1368T566 1386Q602 1386 635 1369T688 1322T709 1253Q709 1218 690 1188T637 1140T566 1122Q528
1122 495 1140ZM904 1122T872 1139T820 1187T801 1253Q801 1289 820 1319T871 1368T942 1386Q977 1386 1010 1369T1063 1322T1084 1253Q1084 1218 1065 1188T1013 1140T942 1122Q904 1122 872 1139Z" />
<glyph unicode="&#xf0;" glyph-name="eth" d="M396 -33T294 31T134 207T76 457Q76 593 129 709T279 895T496 965Q546 965 601 945T694 889Q667 945 640 991T569 1087L315 1016L254 1178L424 1221Q340 1284 227 1346L473 1401Q567 1340 633 1282L868 1343L926 1190L762
1147Q963 882 963 514Q963 350 913 227T764 36T522 -33Q396 -33 294 31ZM587 160T632 195T703 301T729 475Q729 578 701 645T627 743T524 774Q464 774 417 739T342 637T315 475Q315 384 341 313T415 201T528 160Q587 160 632 195Z" />
<glyph unicode="&#xf1;" glyph-name="ntilde" d="M123 956H354V858Q405 914 475 945T627 977Q763 977 844 881T926 580V0H696V578Q696 686 657 737T539 788Q490 788 448 769T380 710T354 614V0H123V956ZM881 1305Q842 1227 791 1184T680 1141Q636 1141 605 1158T531
1211Q499 1240 475 1254T422 1268Q378 1268 351 1246T301 1167L174 1219Q206 1311 268 1358T414 1405Q462 1405 497 1387T574 1333Q606 1307 627 1295T672 1282Q697 1282 716 1302T758 1368L881 1305Z" />
<glyph unicode="&#xf2;" glyph-name="ograve" d="M387 -33T283 32T119 213T59 477Q59 616 120 730T285 911T514 977Q638 977 742 911T908 731T969 477Q969 329 909 213T745 32T514 -33Q387 -33 283 32ZM582 152T632 192T710 306T737 477Q737 575 710 646T633 755T514
793Q449 793 400 755T323 646T295 477Q295 379 321 306T397 192T514 152Q582 152 632 192ZM504 1059L289 1348L428 1448L592 1110L504 1059Z" />
<glyph unicode="&#xf3;" glyph-name="oacute" d="M387 -33T283 32T119 213T59 477Q59 616 120 730T285 911T514 977Q638 977 742 911T908 731T969 477Q969 329 909 213T745 32T514 -33Q387 -33 283 32ZM582 152T632 192T710 306T737 477Q737 575 710 646T633 755T514
793Q449 793 400 755T323 646T295 477Q295 379 321 306T397 192T514 152Q582 152 632 192ZM463 1059L375 1110L539 1448L678 1348L463 1059Z" />
<glyph unicode="&#xf4;" glyph-name="ocircumflex" d="M387 -33T283 32T119 213T59 477Q59 616 120 730T285 911T514 977Q638 977 742 911T908 731T969 477Q969 329 909 213T745 32T514 -33Q387 -33 283 32ZM582 152T632 192T710 306T737 477Q737 575 710 646T633
755T514 793Q449 793 400 755T323 646T295 477Q295 379 321 306T397 192T514 152Q582 152 632 192ZM254 1051L166 1130L483 1427H545L862 1130L774 1051L514 1282L254 1051Z" />
<glyph unicode="&#xf5;" glyph-name="otilde" d="M387 -33T283 32T119 213T59 477Q59 616 120 730T285 911T514 977Q638 977 742 911T908 731T969 477Q969 329 909 213T745 32T514 -33Q387 -33 283 32ZM582 152T632 192T710 306T737 477Q737 575 710 646T633 755T514
793Q449 793 400 755T323 646T295 477Q295 379 321 306T397 192T514 152Q582 152 632 192ZM863 1305Q824 1227 773 1184T662 1141Q618 1141 587 1158T513 1211Q481 1240 457 1254T404 1268Q360 1268 333 1246T283 1167L156 1219Q188 1311 250 1358T396 1405Q444
1405 479 1387T556 1333Q588 1307 609 1295T654 1282Q679 1282 698 1302T740 1368L863 1305Z" />
<glyph unicode="&#xf6;" glyph-name="odieresis" d="M387 -33T283 32T119 213T59 477Q59 616 120 730T285 911T514 977Q638 977 742 911T908 731T969 477Q969 329 909 213T745 32T514 -33Q387 -33 283 32ZM582 152T632 192T710 306T737 477Q737 575 710 646T633
755T514 793Q449 793 400 755T323 646T295 477Q295 379 321 306T397 192T514 152Q582 152 632 192ZM288 1122T255 1140T203 1188T184 1253Q184 1288 203 1319T255 1368T326 1386Q362 1386 395 1369T448 1322T469 1253Q469 1218 450 1188T397 1140T326 1122Q288
1122 255 1140ZM664 1122T632 1139T580 1187T561 1253Q561 1289 580 1319T631 1368T702 1386Q737 1386 770 1369T823 1322T844 1253Q844 1218 825 1188T773 1140T702 1122Q664 1122 632 1139Z" />
<glyph unicode="&#xf7;" glyph-name="divide" d="M487 825T457 841T409 886T391 946Q391 979 409 1008T458 1054T522 1071Q561 1071 590 1051T636 1002T653 946Q653 914 636 886T588 842T522 825Q487 825 457 841ZM127 559V762H899V559H127ZM488 246T457 262T408
306T389 367Q389 402 408 430T457 473T522 489Q562 489 592 470T637 422T653 367Q653 316 615 281T522 246Q488 246 457 262Z" />
<glyph unicode="&#xf8;" glyph-name="oslash" d="M115 -47L197 104Q131 172 95 265T59 469Q59 611 121 727T289 910T520 977Q588 977 657 956L721 1071L899 975L829 848Q894 782 929 687T965 473Q965 318 908 204T748 28T518 -33Q438 -33 362 -4L291 -139L115
-47ZM565 786Q543 793 514 793Q449 793 400 755T323 646T295 477Q295 388 315 324L565 786ZM619 154T678 236T737 469Q737 563 713 633L455 162Q482 154 518 154Q619 154 678 236Z" />
<glyph unicode="&#xf9;" glyph-name="ugrave" d="M267 -41T186 54T104 358V956H330V358Q330 251 366 199T467 147Q524 147 571 177T645 261T672 383V956H903V156Q903 95 906 63T924 0H700Q687 25 684 49T680 111Q640 42 566 1T422 -41Q267 -41 186 54ZM502 1059L287
1348L426 1448L590 1110L502 1059Z" />
<glyph unicode="&#xfa;" glyph-name="uacute" d="M267 -41T186 54T104 358V956H330V358Q330 251 366 199T467 147Q524 147 571 177T645 261T672 383V956H903V156Q903 95 906 63T924 0H700Q687 25 684 49T680 111Q640 42 566 1T422 -41Q267 -41 186 54ZM461 1059L373
1110L537 1448L676 1348L461 1059Z" />
<glyph unicode="&#xfb;" glyph-name="ucircumflex" d="M267 -41T186 54T104 358V956H330V358Q330 251 366 199T467 147Q524 147 571 177T645 261T672 383V956H903V156Q903 95 906 63T924 0H700Q687 25 684 49T680 111Q640 42 566 1T422 -41Q267 -41 186 54ZM252
1051L164 1130L481 1427H543L860 1130L772 1051L512 1282L252 1051Z" />
<glyph unicode="&#xfc;" glyph-name="udieresis" d="M267 -41T186 54T104 358V956H330V358Q330 251 366 199T467 147Q524 147 571 177T645 261T672 383V956H903V156Q903 95 906 63T924 0H700Q687 25 684 49T680 111Q640 42 566 1T422 -41Q267 -41 186 54ZM286
1122T253 1140T201 1188T182 1253Q182 1288 201 1319T253 1368T324 1386Q360 1386 393 1369T446 1322T467 1253Q467 1218 448 1188T395 1140T324 1122Q286 1122 253 1140ZM662 1122T630 1139T578 1187T559 1253Q559 1289 578 1319T629 1368T700 1386Q735 1386 768
1369T821 1322T842 1253Q842 1218 823 1188T771 1140T700 1122Q662 1122 630 1139Z" />
<glyph unicode="&#xfd;" glyph-name="yacute" d="M930 956Q927 874 904 790T838 588L600 -68Q542 -227 459 -294T256 -362Q189 -362 136 -340T20 -268L95 -104L96 -102Q97 -102 99 -104Q100 -105 119 -121Q160 -153 188 -169T250 -186Q300 -186 344 -136T425 4L63
956H287L527 285L651 627Q681 720 696 790T712 928Q712 947 711 956H930ZM125 -100Q125 -103 121 -103Q118 -103 99 -96L103 -87L124 -97L125 -100ZM87 -95T87 -93Q87 -92 99 -96L96 -102Q87 -95 87 -93ZM481 1059L393 1110L557 1448L696 1348L481 1059Z" />
<glyph unicode="&#xfe;" glyph-name="thorn" d="M102 1382H360Q360 1371 357 1363T347 1344Q340 1331 336 1321T332 1294V868Q377 918 435 947T553 977Q663 977 755 923T901 760T956 498Q956 329 901 210T754 30T555 -31Q499 -31 437 -6T334 63V-342H102V1382ZM567
160T614 191T693 291T725 467Q725 613 671 702T510 791Q408 791 369 710T330 489Q330 317 378 239T516 160Q567 160 614 191Z" />
<glyph unicode="&#xff;" glyph-name="ydieresis" d="M930 956Q927 874 904 790T838 588L600 -68Q542 -227 459 -294T256 -362Q189 -362 136 -340T20 -268L95 -104L96 -102Q97 -102 99 -104Q100 -105 119 -121Q160 -153 188 -169T250 -186Q300 -186 344 -136T425
4L63 956H287L527 285L651 627Q681 720 696 790T712 928Q712 947 711 956H930ZM125 -100Q125 -103 121 -103Q118 -103 99 -96L103 -87L124 -97L125 -100ZM87 -95T87 -93Q87 -92 99 -96L96 -102Q87 -95 87 -93ZM306 1122T273 1140T221 1188T202 1253Q202 1288 221
1319T273 1368T344 1386Q380 1386 413 1369T466 1322T487 1253Q487 1218 468 1188T415 1140T344 1122Q306 1122 273 1140ZM682 1122T650 1139T598 1187T579 1253Q579 1289 598 1319T649 1368T720 1386Q755 1386 788 1369T841 1322T862 1253Q862 1218 843 1188T791
1140T720 1122Q682 1122 650 1139Z" />
<glyph unicode="&#x2013;" glyph-name="endash" d="M131 750H899V563H131V750Z" />
<glyph unicode="&#x2014;" glyph-name="emdash" d="M20 563V750H1004V563H20Z" />
<glyph unicode="&#x2018;" glyph-name="quoteleft" d="M441 731T389 781T336 920Q336 1001 396 1101T578 1327L692 1223Q635 1169 597 1112T559 1022Q559 1007 567 997T595 970Q624 946 640 921T657 854Q657 794 620 763T524 731Q441 731 389 781Z" />
<glyph unicode="&#x2019;" glyph-name="quoteright" d="M303 836Q360 889 398 946T436 1036Q436 1045 428 1055T401 1082Q372 1109 355 1132T338 1184Q338 1245 380 1286T492 1327Q535 1327 573 1303T635 1235T659 1139Q659 1057 600 957T418 731L303 836Z" />
<glyph unicode="&#x201a;" glyph-name="quotesinglbase" d="M305 -242Q362 -188 400 -131T438 -41Q438 -28 430 -19T401 6Q372 28 356 49T340 106Q340 146 359 179T413 231T494 250Q542 250 580 228T640 163T662 61Q662 -20 602 -120T420 -346L305 -242Z" />
<glyph unicode="&#x201c;" glyph-name="quotedblleft" d="M256 731T217 755T155 823T131 920Q131 1001 191 1101T373 1327L487 1223Q430 1168 392 1111T354 1022Q354 1008 363 998T392 973Q421 953 437 932T453 874Q453 835 434 802T379 750T299 731Q256 731 217
755ZM678 731T639 755T577 823T553 920Q553 1001 613 1101T795 1327L909 1223Q852 1168 814 1111T776 1022Q776 1005 786 991T821 956Q847 934 860 916T874 874Q874 835 855 802T801 750T721 731Q678 731 639 755Z" />
<glyph unicode="&#x201d;" glyph-name="quotedblright" d="M362 1327T401 1303T463 1235T487 1138Q487 1057 427 957T245 731L131 835Q188 890 226 947T264 1036Q264 1053 254 1067T219 1102Q193 1124 180 1142T166 1184Q166 1223 185 1256T239 1308T319 1327Q362
1327 401 1303ZM784 1327T823 1303T885 1235T909 1138Q909 1057 849 957T667 731L553 835Q610 890 648 947T686 1036Q686 1050 677 1060T648 1085Q619 1105 603 1126T587 1184Q587 1223 606 1256T661 1308T741 1327Q784 1327 823 1303Z" />
<glyph unicode="&#x201e;" glyph-name="quotedblbase" d="M100 -242Q157 -188 195 -131T233 -41Q233 -32 225 -22T198 5Q169 32 152 55T135 106Q135 146 154 179T209 231T289 250Q332 250 371 226T433 158T457 61Q457 -20 397 -120T215 -346L100 -242ZM522 -242Q579
-188 617 -131T655 -41Q655 -32 647 -22T620 5Q591 32 574 55T557 106Q557 146 576 179T630 231T711 250Q754 250 793 226T855 158T879 61Q879 -20 819 -120T637 -346L522 -242Z" />
<glyph unicode="&#x2022;" glyph-name="bullet" d="M464 422T417 448T341 519T313 616Q313 669 341 713T416 784T520 811Q576 811 624 785T699 714T727 616Q727 564 699 520T624 449T520 422Q464 422 417 448Z" />
<glyph unicode="&#x2039;" glyph-name="guilsinglleft" d="M592 88L250 457V526L586 852L721 713L487 489L731 227L592 88Z" />
<glyph unicode="&#x203a;" glyph-name="guilsinglright" d="M395 88L256 227L500 489L266 713L401 852L737 526V457L395 88Z" />
</font>
</defs>
</svg>
