<svg width="150" height="150" viewBox="0 0 150 150" fill="none" xmlns="http://www.w3.org/2000/svg">
<path d="M27.9557 92H35.348L38.1419 76.0804L38.4038 74.7126L38.6658 76.0804L41.6343 92H49.0266L54.9637 58.0945H47.3968L45.2722 73.2283L45.0103 75.0327L44.6902 73.2283L42.1 58.0945H34.6786L32.1757 73.1701L31.9429 74.5962L31.7392 73.1701L29.6146 58.0945H21.9604L27.9557 92ZM63.7529 92H71.1452L73.9391 76.0804L74.201 74.7126L74.463 76.0804L77.4315 92H84.8238L90.7609 58.0945H83.194L81.0694 73.2283L80.8075 75.0327L80.4874 73.2283L77.8972 58.0945H70.4758L67.9729 73.1701L67.7401 74.5962L67.5363 73.1701L65.4118 58.0945H57.7576L63.7529 92ZM99.5501 92H106.942L109.736 76.0804L109.998 74.7126L110.26 76.0804L113.229 92H120.621L126.558 58.0945H118.991L116.867 73.2283L116.605 75.0327L116.285 73.2283L113.694 58.0945H106.273L103.77 73.1701L103.537 74.5962L103.334 73.1701L101.209 58.0945H93.5548L99.5501 92Z" fill="#898879"/>
</svg>
