<svg width="150" height="150" viewBox="0 0 150 150" fill="none" xmlns="http://www.w3.org/2000/svg">
<path d="M45.5051 85.5681L47.9207 92H56.1569L42.7402 58.0945H34.8823L21.6403 92H29.9056L32.2339 85.5681H45.5051ZM34.4167 79.6311L38.6367 68.0479L38.8113 67.524L39.015 68.0479L43.2932 79.6311H34.4167ZM61.4828 92H76.2092C78.5568 92 80.6426 91.7672 82.4664 91.3015C84.3096 90.8165 85.7745 90.0889 86.861 89.1188C87.8893 88.1875 88.6169 87.1785 89.0438 86.092C89.4706 85.0055 89.684 83.7346 89.684 82.2795C89.684 81.4646 89.5676 80.6691 89.3348 79.893C89.102 79.0975 88.743 78.3602 88.258 77.6811C87.7535 77.002 87.1229 76.4103 86.3662 75.9058C85.6096 75.4014 84.6977 75.023 83.6305 74.7708C84.426 74.4797 85.1342 74.1208 85.7551 73.694C86.3759 73.2671 86.8998 72.7918 87.3267 72.2679C87.8505 71.6082 88.2386 70.8709 88.4908 70.056C88.7624 69.2411 88.8982 68.3874 88.8982 67.4949C88.8982 65.8651 88.5587 64.4585 87.8796 63.2749C87.2199 62.0914 86.2789 61.1116 85.0566 60.3355C83.8343 59.5788 82.3597 59.0161 80.6329 58.6475C78.9255 58.2789 77.0338 58.0945 74.9577 58.0945H61.4828V92ZM69.6027 77.7393H76.5293C77.48 77.7587 78.2949 77.8751 78.974 78.0886C79.6531 78.302 80.1963 78.6124 80.6038 79.0199C80.9336 79.3497 81.1761 79.7475 81.3314 80.2131C81.4866 80.6788 81.5642 81.2026 81.5642 81.7847C81.5642 82.2504 81.4769 82.6869 81.3023 83.0944C81.1276 83.5018 80.8754 83.8607 80.5456 84.1712C80.1187 84.5786 79.5366 84.9085 78.7994 85.1607C78.0815 85.3935 77.2181 85.5099 76.2092 85.5099H69.6027V77.7393ZM69.6027 72.2388V64.6719H75.5107C76.3256 64.6719 77.0532 64.7398 77.6934 64.8756C78.3531 65.0114 78.9061 65.2249 79.3523 65.5159C79.7986 65.8263 80.1381 66.2338 80.3709 66.7382C80.6232 67.2233 80.7493 67.8248 80.7493 68.5427C80.7493 69.0471 80.6717 69.5031 80.5165 69.9105C80.3806 70.318 80.1672 70.6575 79.8762 70.9291C79.4493 71.356 78.8867 71.6761 78.1882 71.8895C77.4897 72.103 76.6651 72.2194 75.7144 72.2388H69.6027ZM124.812 80.3877H116.721C116.721 81.4355 116.537 82.3183 116.168 83.0362C115.819 83.754 115.344 84.3361 114.742 84.7824C114.121 85.2286 113.413 85.5584 112.618 85.7719C111.822 85.9659 110.997 86.0629 110.144 86.0629C109.135 86.0629 108.204 85.8786 107.35 85.5099C106.516 85.1219 105.788 84.5689 105.167 83.851C104.546 83.1332 104.051 82.2601 103.683 81.2317C103.334 80.184 103.159 78.9908 103.159 77.652V72.4716C103.159 71.2299 103.334 70.1045 103.683 69.0956C104.032 68.0673 104.507 67.1845 105.109 66.4472C105.71 65.7099 106.418 65.1376 107.233 64.7301C108.048 64.3227 108.921 64.1189 109.853 64.1189C111.017 64.1189 112.045 64.2742 112.938 64.5846C113.85 64.8756 114.606 65.3025 115.208 65.8651C115.712 66.3502 116.091 66.9323 116.343 67.6113C116.614 68.271 116.75 69.018 116.75 69.8523H124.899C124.744 67.8733 124.269 66.1271 123.473 64.6137C122.697 63.0809 121.659 61.7907 120.359 60.7429C119.059 59.7146 117.517 58.9385 115.732 58.4147C113.966 57.8908 112.006 57.6289 109.853 57.6289C107.796 57.6289 105.866 57.9878 104.061 58.7057C102.276 59.4236 100.714 60.4325 99.3755 61.7325C98.0367 63.0518 96.9793 64.6234 96.2032 66.4472C95.4271 68.271 95.0391 70.2889 95.0391 72.5007V77.652C95.0391 79.8445 95.4077 81.8526 96.145 83.6764C96.9017 85.5002 97.9494 87.0621 99.2882 88.3621C100.627 89.662 102.218 90.6709 104.061 91.3888C105.904 92.1067 107.932 92.4657 110.144 92.4657C112.045 92.4657 113.859 92.2328 115.586 91.7672C117.332 91.2821 118.875 90.5448 120.214 89.5553C121.533 88.5658 122.6 87.3144 123.415 85.801C124.249 84.2682 124.715 82.4638 124.812 80.3877Z" fill="#898879"/>
</svg>
