<svg width="150" height="150" viewBox="0 0 150 150" fill="none" xmlns="http://www.w3.org/2000/svg">
<rect x="11" y="36" width="129" height="77" rx="3.27151" fill="#898879"/>
<path d="M25.6856 92H40.412C42.7596 92 44.8454 91.7672 46.6692 91.3015C48.5124 90.8165 49.9773 90.0889 51.0638 89.1188C52.0921 88.1875 52.8197 87.1785 53.2466 86.092C53.6734 85.0055 53.8868 83.7346 53.8868 82.2795C53.8868 81.4646 53.7704 80.6691 53.5376 79.893C53.3048 79.0975 52.9458 78.3602 52.4608 77.6811C51.9563 77.002 51.3257 76.4103 50.5691 75.9058C49.8124 75.4014 48.9005 75.023 47.8333 74.7708C48.6288 74.4797 49.337 74.1208 49.9579 73.694C50.5788 73.2671 51.1026 72.7918 51.5295 72.2679C52.0533 71.6082 52.4414 70.8709 52.6936 70.056C52.9652 69.2411 53.1011 68.3874 53.1011 67.4949C53.1011 65.8651 52.7615 64.4585 52.0824 63.2749C51.4228 62.0914 50.4818 61.1116 49.2594 60.3355C48.0371 59.5788 46.5625 59.0161 44.8357 58.6475C43.1283 58.2789 41.2366 58.0945 39.1605 58.0945H25.6856V92ZM33.8055 77.7393H40.7321C41.6828 77.7587 42.4977 77.8751 43.1768 78.0886C43.8559 78.302 44.3991 78.6124 44.8066 79.0199C45.1364 79.3497 45.379 79.7475 45.5342 80.2131C45.6894 80.6788 45.767 81.2026 45.767 81.7847C45.767 82.2504 45.6797 82.6869 45.5051 83.0944C45.3304 83.5018 45.0782 83.8607 44.7484 84.1712C44.3215 84.5786 43.7395 84.9085 43.0022 85.1607C42.2843 85.3935 41.4209 85.5099 40.412 85.5099H33.8055V77.7393ZM33.8055 72.2388V64.6719H39.7135C40.5284 64.6719 41.256 64.7398 41.8962 64.8756C42.5559 65.0114 43.1089 65.2249 43.5551 65.5159C44.0014 65.8263 44.3409 66.2338 44.5738 66.7382C44.826 67.2233 44.9521 67.8248 44.9521 68.5427C44.9521 69.0471 44.8745 69.5031 44.7193 69.9105C44.5835 70.318 44.37 70.6575 44.079 70.9291C43.6522 71.356 43.0895 71.6761 42.391 71.8895C41.6925 72.103 40.8679 72.2194 39.9172 72.2388H33.8055ZM91.081 64.5846V58.0945H59.2419V64.5846H70.9414V92H79.1195V64.5846H91.081ZM122.978 92V58.0945H114.917L114.946 78.4378L105.254 58.0945H97.2218V92H105.254L105.225 71.6858L114.946 92H122.978Z" fill="#E5E5E5"/>
</svg>
