<svg width="150" height="150" viewBox="0 0 150 150" fill="none" xmlns="http://www.w3.org/2000/svg">
<path d="M128 75C128 104.271 104.271 128 75 128C45.7289 128 22 104.271 22 75C22 45.7289 45.7289 22 75 22C104.271 22 128 45.7289 128 75ZM27.1118 75C27.1118 101.448 48.5521 122.888 75 122.888C101.448 122.888 122.888 101.448 122.888 75C122.888 48.5521 101.448 27.1118 75 27.1118C48.5521 27.1118 27.1118 48.5521 27.1118 75Z" fill="#8E8E8E"/>
<path d="M32 75C32 67.4474 33.8999 60.0219 37.5169 53.4383C41.1338 46.8547 46.3461 41.3346 52.6519 37.4093C58.9577 33.484 66.1448 31.2857 73.5214 31.026C80.898 30.7663 88.2157 32.4539 94.7703 35.9264C101.325 39.3989 106.896 44.5394 110.946 50.853C114.997 57.1667 117.391 64.441 117.898 71.9757C118.406 79.5105 117.009 87.052 113.843 93.8744C110.677 100.697 105.848 106.571 99.8203 110.93L93.4924 101.77C97.983 98.5217 101.581 94.1455 103.94 89.0625C106.299 83.9794 107.339 78.3605 106.961 72.7467C106.584 67.133 104.8 61.7132 101.782 57.0092C98.7638 52.3052 94.6134 48.4753 89.7299 45.8881C84.8464 43.3009 79.3943 42.0436 73.8983 42.2371C68.4024 42.4306 63.0476 44.0684 58.3495 46.9929C53.6513 49.9175 49.7679 54.0303 47.0731 58.9354C44.3783 63.8405 42.9627 69.3729 42.9627 75H32Z" fill="#E5E5E5"/>
</svg>
