<?xml version="1.0" encoding="UTF-8" standalone="no"?>
<!DOCTYPE svg PUBLIC "-//W3C//DTD SVG 20010904//EN" "http://www.w3.org/TR/2001/REC-SVG-20010904/DTD/svg10.dtd">
<!-- Created with Inkscape (http://www.inkscape.org/) -->
<svg id="svg1" sodipodi:version="0.32" inkscape:version="0.38.1" width="400.00000pt" height="400.00000pt" sodipodi:docbase="/var/www/html/svg_gallery/svg/fruits" sodipodi:docname="cherries.svg" xmlns="http://www.w3.org/2000/svg" xmlns:inkscape="http://www.inkscape.org/namespaces/inkscape" xmlns:sodipodi="http://sodipodi.sourceforge.net/DTD/sodipodi-0.dtd" xmlns:xlink="http://www.w3.org/1999/xlink">
  <defs id="defs3">
    <linearGradient id="linearGradient829">
      <stop style="stop-color:#ffffff;stop-opacity:0.52499998;" offset="0.0000000" id="stop830"/>
      <stop style="stop-color:#ffffff;stop-opacity:0.0000000;" offset="1.0000000" id="stop831"/>
    </linearGradient>
    <radialGradient xlink:href="#linearGradient829" id="radialGradient832"/>
  </defs>
  <sodipodi:namedview id="base" pagecolor="#ffffff" bordercolor="#666666" borderopacity="1.0" inkscape:pageopacity="0.0" inkscape:pageshadow="2" inkscape:zoom="1.0000000" inkscape:cx="235.89513" inkscape:cy="221.05255" inkscape:window-width="737" inkscape:window-height="637" showgrid="true" inkscape:window-x="67" inkscape:window-y="24"/>
  <g id="g844">
    <path style="fill:#ca0000;fill-rule:evenodd;stroke:#000000;stroke-width:10.000000;stroke-linejoin:round;stroke-dasharray:none;" d="M 321.77967,240.55851 C 305.74509,226.87007 209.23681,228.57215 230.38247,345.50316 C 254.13371,447.58709 382.71936,425.36144 409.59076,382.92313 C 459.54531,302.50843 387.52154,216.22352 321.77967,240.55851 z " id="path834" sodipodi:nodetypes="cssc"/>
    <path style="fill:#ca0000;fill-rule:evenodd;stroke:#000000;stroke-width:10.000000;stroke-linejoin:round;stroke-dasharray:none;" d="M 171.69805,265.18005 C 155.66346,251.49161 31.896364,253.19369 53.042027,370.12469 C 76.793265,472.20862 194.77724,461.90190 229.42263,424.87842 C 300.22216,347.50559 227.81915,253.01255 171.69805,265.18005 z " id="path826" sodipodi:nodetypes="cssc"/>
    <path style="fill:none;fill-opacity:0.75000000;fill-rule:evenodd;stroke:#000000;stroke-width:10.000000;stroke-linejoin:round;stroke-dasharray:none;" d="M 294.52087,252.72600 C 291.31395,270.97725 333.00390,281.62379 365.07309,260.33067" id="path835" sodipodi:nodetypes="cc"/>
    <path style="fill:none;fill-opacity:0.75000000;fill-rule:evenodd;stroke:#000000;stroke-width:10.000000;stroke-linejoin:round;stroke-dasharray:none;" d="M 144.43924,281.91035 C 141.23233,300.16160 163.68077,332.10126 195.74994,310.80816" id="path827" sodipodi:nodetypes="cc"/>
    <path style="fill:url(#radialGradient832);fill-opacity:0.33333334;fill-rule:evenodd;stroke-width:1.0000000pt;" d="M 130.68924,293.80691 C 71.361211,252.74161 29.671257,354.64437 76.171587,366.81187 C 137.10308,388.10498 183.60341,333.35126 130.68924,293.80691 z " id="path828" sodipodi:nodetypes="ccc"/>
    <path style="fill:url(#radialGradient832);fill-opacity:0.33333334;fill-rule:evenodd;stroke-width:1.0000000pt;" d="M 324.98660,246.64226 C 241.60668,191.88852 222.36517,378.96376 268.86550,391.13125 C 355.45236,435.23841 377.90078,286.18661 324.98660,246.64226 z " id="path836" sodipodi:nodetypes="ccc"/>
    <path style="fill:#552400;fill-rule:evenodd;stroke:#000000;stroke-width:10.000000;stroke-linejoin:round;stroke-dasharray:none;" d="M 375.00000,25.000000 C 369.64113,26.339717 353.66590,46.968620 345.96573,60.269150 C 247.60473,110.55017 212.43704,168.73822 187.65625,219.34375 C 174.60428,245.99752 168.35520,272.80330 165.28125,288.46875 C 163.74427,296.30147 163.00149,302.30756 162.59375,305.90625 C 163.62692,316.77721 178.15894,314.55575 177.53125,308.28125 C 181.67524,299.80387 178.62424,297.89517 180.09375,290.40625 C 183.03278,275.42840 189.02161,253.20648 201.62500,227.46875 C 223.64946,182.49199 261.07623,126.75109 342.93750,79.687500 L 345.81250,83.031250 C 315.63375,125.39000 298.64188,187.73824 318.78125,265.34375 C 322.83511,267.80918 337.30132,266.97585 338.46875,262.84375 C 318.02508,175.49413 341.50964,108.32423 375.25000,73.187500 C 382.70436,68.540845 397.65926,55.512963 401.25000,55.000000 C 405.31099,47.721274 389.06703,28.349292 375.00000,25.000000 z " id="path845" sodipodi:nodetypes="ccccccccccccccc"/>
  </g>

  <rdf:RDF xmlns="http://web.resource.org/cc/" xmlns:dc="http://purl.org/dc/elements/1.1/" xmlns:rdf="http://www.w3.org/1999/02/22-rdf-syntax-ns#">
  <Work rdf:about="">
    <dc:title>Clipart by Nicu Buculei - pear</dc:title>
    <dc:rights>
       <Agent>
         <dc:title>Nicu Buculei</dc:title>
       </Agent>
    </dc:rights>
    <dc:type rdf:resource="http://purl.org/dc/dcmitype/StillImage"/>
    <license rdf:resource="http://web.resource.org/cc/PublicDomain"/>
  </Work>
   
  <License rdf:about="http://web.resource.org/cc/PublicDomain">
     <permits rdf:resource="http://web.resource.org/cc/Reproduction"/>
     <permits rdf:resource="http://web.resource.org/cc/Distribution"/>
     <permits rdf:resource="http://web.resource.org/cc/DerivativeWorks"/>
  </License>

</rdf:RDF>
</svg>